<svg width="660" height="300" viewBox="0 0 660 300" fill="none" xmlns="http://www.w3.org/2000/svg">
<path fill-rule="evenodd" clip-rule="evenodd" d="M240.5 66.5L184.6 0.5L178.9 5.5L181.2 9.7C182.1 10.7 182 12.3 181 13.2C180 14.1 178.4 14 177.5 13C177.1 12.6 176.9 12 176.9 11.5C176.9 11 177 10.5 177.2 10.1L175.1 8.9L166.8 16.2L169.9 19.8C170.8 20.8 170.7 22.4 169.7 23.3C168.7 24.2 167.1 24.1 166.2 23.1C165.8 22.7 165.6 22.1 165.6 21.6C165.6 21.1 165.7 20.7 165.9 20.3L164 18.7L155.4 26.3L156.8 29C157 29 157.1 29 157.3 29C157.8 29.1 158.3 29.4 158.7 29.8C159.6 30.8 159.5 32.4 158.5 33.3C157.5 34.2 155.9 34.1 155 33.1C154.6 32.7 154.4 32.1 154.4 31.6C154.4 31.2 154.4 30.8 154.6 30.4L152.6 28.7L143.8 36.4L145.5 38.9C145.7 38.9 145.8 38.9 146 38.9C146.5 39 147 39.3 147.4 39.7C148.3 40.7 148.2 42.3 147.2 43.2C146.2 44.1 144.6 44 143.7 43C143.3 42.6 143.1 42 143.1 41.5C143.1 41.4 143.1 41.2 143.1 41.1L140.3 39.6L132.7 46.3L134.2 49C134.4 49 134.6 49 134.8 49C135.3 49.1 135.8 49.4 136.2 49.8C137.1 50.8 137 52.4 136 53.3C135 54.2 133.4 54.1 132.5 53.1C132.1 52.7 131.9 52.1 131.9 51.6C131.9 51.4 131.9 51.2 132 50.9C131.2 50.4 130.2 49.8 129.4 49.3L121.1 56.6L122.3 59.1C122.7 59 123.2 58.9 123.6 59C124.1 59.1 124.6 59.4 125 59.8C125.9 60.8 125.8 62.4 124.8 63.3C123.8 64.2 122.2 64.1 121.3 63.1C120.9 62.7 120.7 62.1 120.7 61.6C120.7 61.1 120.8 60.6 121 60.2L118.8 58.6L113.6 63.2L172.6 127.1C175.9 130.5 181.2 130.7 184.7 127.6L232.1 85.5L239.9 78.5C243.1 75.5 243.5 70.2 240.5 66.5Z" fill="url(#paint0_linear)"/>
<path d="M198.599 21.3475L131.558 80.9442L131.89 81.3179L198.932 21.7212L198.599 21.3475Z" fill="#E54D98"/>
<path d="M203.869 28.6386L136.827 88.2353L137.159 88.609L204.201 29.0123L203.869 28.6386Z" fill="#C9A4AC"/>
<path d="M210.563 34.7158L143.521 94.3124L143.853 94.6861L210.895 35.0895L210.563 34.7158Z" fill="#C9A4AC"/>
<path d="M216.47 41.4663L149.428 101.063L149.761 101.437L216.802 41.84L216.47 41.4663Z" fill="#C9A4AC"/>
<path d="M222.518 48.2253L155.476 107.822L155.808 108.196L222.85 48.599L222.518 48.2253Z" fill="#C9A4AC"/>
<path d="M228.448 56.5381L161.475 114.544L161.802 114.922L228.775 56.916L228.448 56.5381Z" fill="#C9A4AC"/>
<path d="M233.112 61.8558L167.388 121.271L167.723 121.642L233.447 62.2267L233.112 61.8558Z" fill="#C9A4AC"/>
<path d="M239.305 68.8168L175.138 126.373L175.472 126.745L239.639 69.189L239.305 68.8168Z" fill="#C9A4AC"/>
<path d="M170.124 13.3982L169.745 13.7239L231.553 85.734L231.932 85.4084L170.124 13.3982Z" fill="#E54D98"/>
<path opacity="0.5" d="M105 270.8L67.7 275.3H274.6H613.4L561 269.4H201.1L105 270.8Z" fill="#B589B6"/>
<path fill-rule="evenodd" clip-rule="evenodd" d="M141 254.6L146.7 270.4L514.7 272.4L523.6 256.6L141 254.6Z" fill="url(#paint1_linear)"/>
<path fill-rule="evenodd" clip-rule="evenodd" d="M197.6 222.8L111.2 239.3L115.9 254.5L546 256.6L549.6 241.9L456.2 220.9L197.6 222.8Z" fill="url(#paint2_linear)"/>
<path d="M414.4 223.7C412.7 223.7 411 222.9 409.4 221.2C408.2 219.9 406.8 218.2 405.2 216.2C398.7 208 388.8 195.6 373.7 195.6C373.6 195.6 373.5 195.6 373.5 195.6C342.8 195.9 334.9 218.3 334.8 218.6L334.7 218.9H334.4C334.3 218.9 328.8 218.7 322.1 219.8L317.3 220.6C306.7 222.3 306.7 222.3 301 222C298.5 221.9 294.7 221.6 288.2 221.5V220.6C294.7 220.8 298.5 221 301 221.1C306.6 221.4 306.6 221.4 317.1 219.7L321.9 218.9C327.7 218 332.7 218 334 218C335.1 215.2 344 195 373.4 194.7C373.5 194.7 373.6 194.7 373.7 194.7C389.3 194.7 399.3 207.3 405.9 215.6C407.5 217.6 408.9 219.4 410.1 220.6C412.9 223.4 415.7 223.6 418.5 220.9C421 218.5 423.1 214.4 424.5 210.2C423 207.9 421.9 205.4 421.5 203.1C420.9 200 421.7 197.4 423.8 195.6C425.4 194.2 426.3 194.7 426.7 195.1C428.2 196.7 427.6 203.5 425.5 210C428.7 214.9 433.5 219.3 436.6 220.6C444.6 223.8 456.3 222.4 456.4 222.4L456.5 223.3C456 223.4 444.4 224.8 436.2 221.5C433 220.2 428.3 216 425 211.2C423.5 215.4 421.5 219.3 419.1 221.6C417.5 223 416 223.7 414.4 223.7ZM425.5 195.6C425.2 195.6 424.8 195.8 424.3 196.3C422.5 197.9 421.8 200.2 422.3 203C422.6 205 423.6 207.1 424.8 209.1C426.6 203 427.2 197.1 426 195.8C425.8 195.6 425.7 195.6 425.5 195.6Z" fill="url(#paint3_linear)"/>
<path fill-rule="evenodd" clip-rule="evenodd" d="M450.1 51.9L447.9 85.5L446.6 105.3L442.3 171.6L441.8 180C441.5 184.2 438 187.4 433.8 187.4H202.6C198.3 187.4 194.8 184 194.6 179.8L189.2 52.6C189 48 192.6 44.2 197.2 44.2L226.8 44.1L245.7 44L320.3 43.7L381 43.5L400.3 43.4L442.1 43.3C446.8 43.3 450.4 47.2 450.1 51.9Z" fill="url(#paint4_radial)"/>
<path fill-rule="evenodd" clip-rule="evenodd" d="M196.9 49.6L443.4 48.7L436.8 170.9L200 171.8L196.9 49.6Z" fill="url(#paint5_radial)"/>
<path fill-rule="evenodd" clip-rule="evenodd" d="M194.4 174.8H442V180.7C442 184.4 439 187.4 435.3 187.4H201.1C197.4 187.4 194.4 184.4 194.4 180.7V174.8V174.8Z" fill="url(#paint6_radial)"/>
<path d="M434.7 186.2H368.4V181.7H434.7V186.2ZM368.8 185.8H434.2V182.2H368.8V185.8V185.8Z" fill="#835D9D"/>
<path d="M386.5 182H386.1V186H386.5V182Z" fill="#835D9D"/>
<path d="M403.7 182H403.3V186H403.7V182Z" fill="#835D9D"/>
<path d="M420.4 182H420V186H420.4V182Z" fill="#835D9D"/>
<path d="M212.5 179.5H201.7V182.7H212.5V179.5Z" fill="#00F1FF"/>
<path fill-rule="evenodd" clip-rule="evenodd" d="M368.9 182.3L370 183.3H385.2L385.9 182.3H368.9Z" fill="white"/>
<path fill-rule="evenodd" clip-rule="evenodd" d="M386.6 182.3L387.5 183.3H402.7L403.3 182.3H386.6Z" fill="white"/>
<path fill-rule="evenodd" clip-rule="evenodd" d="M403.8 182.3L404.6 183.3H419.2L420 182.3H403.8Z" fill="white"/>
<path fill-rule="evenodd" clip-rule="evenodd" d="M420.4 182.3L421.5 183.3H433.4L434.1 182.3H420.4Z" fill="white"/>
<path fill-rule="evenodd" clip-rule="evenodd" d="M194.4 174.8L194.7 175.8L442 175.6V174.8H194.4Z" fill="white"/>
<path opacity="0.39" fill-rule="evenodd" clip-rule="evenodd" d="M340.5 44.2L343.8 48.4L445.3 47.5L440 140.9L444.3 141.9L450.5 52.3C450.8 47.4 447 43.3 442.1 43.3L340.5 44.2Z" fill="#C7D3FF"/>
<path opacity="0.39" fill-rule="evenodd" clip-rule="evenodd" d="M192.8 136.7L197.8 140.1L199.2 174.8H194.4L192.8 136.7Z" fill="#C7D3FF"/>
<path fill-rule="evenodd" clip-rule="evenodd" d="M306 187.4L309.6 208.5H331.6L334.3 187.4H306Z" fill="url(#paint7_radial)"/>
<path fill-rule="evenodd" clip-rule="evenodd" d="M309.6 208.6H302.5L298.9 222.8H341.5L338.4 208.6H331.6H309.6Z" fill="url(#paint8_radial)"/>
<path fill-rule="evenodd" clip-rule="evenodd" d="M258.8 221.7L261.3 225.5H270.9L320.2 222.8L370.9 225.5H385.1V221.7L328.8 210.5H302L258.8 221.7Z" fill="url(#paint9_radial)"/>
<path fill-rule="evenodd" clip-rule="evenodd" d="M309.2 206.5L258.8 221.7H270.3L320.2 211.3L371.4 221.7H385.1L331.6 206.6L309.2 206.5Z" fill="url(#paint10_radial)"/>
<path opacity="0.5" fill-rule="evenodd" clip-rule="evenodd" d="M320.2 211.3V222.8L370.9 225.5L371.4 221.7L320.2 211.3Z" fill="#400079"/>
<path opacity="0.5" fill-rule="evenodd" clip-rule="evenodd" d="M309.2 206.5L309.3 213.6L320.2 211.3L331.8 213.7L331.9 206.6L309.2 206.5Z" fill="url(#paint11_linear)"/>
<path fill-rule="evenodd" clip-rule="evenodd" d="M111.2 239.3L549.6 241.9L545.7 257.8L115.9 254.5L111.2 239.3Z" fill="url(#paint12_linear)"/>
<path opacity="0.8" fill-rule="evenodd" clip-rule="evenodd" d="M111.2 239.3L347 238.7L549.6 241.9L111.2 239.3Z" fill="#FBF9FA"/>
<path opacity="0.5" fill-rule="evenodd" clip-rule="evenodd" d="M141 254.6L144.5 264.3L338.6 259.5L517.9 266.7L523 257.6L141 254.6Z" fill="#9A2463"/>
<path opacity="0.5" fill-rule="evenodd" clip-rule="evenodd" d="M449 226.4L451.2 229L469.3 233.5C469.3 233.5 485.3 236.9 502 230.6L449 226.4Z" fill="#9A2463"/>
<path fill-rule="evenodd" clip-rule="evenodd" d="M449 226.4C449 226.4 453.5 214.4 469.6 211.5C485.7 208.6 498.5 223.4 502 230.6C502 230.6 490.4 233.8 469.6 231.3C469.6 231.3 458.1 225.9 451.8 228.1L449 226.4Z" fill="url(#paint13_radial)"/>
<path fill-rule="evenodd" clip-rule="evenodd" d="M451.8 228.2C451.8 228.2 462 219.5 466.4 220.8C470.9 222.1 469.5 231.3 469.5 231.3C469.5 231.3 460.6 228 451.8 228.2Z" fill="url(#paint14_radial)"/>
<g opacity="0.5">
<path opacity="0.5" d="M464 213C465.2 212.9 466.4 213 467.6 213.1C468.8 213.3 470 213.6 471.1 214C472.2 214.4 473.3 214.9 474.4 215.5C475.4 216.1 476.4 216.9 477.3 217.6H477.2C479.1 218 481.1 218.2 483.1 218.2C485.1 218.2 487.1 218.1 489 217.6L488.9 217.9C488.2 217.2 487.3 216.5 486.5 215.8C485.6 215.2 484.7 214.6 483.8 214C482.9 213.5 481.9 213 480.9 212.5C479.9 212 478.9 211.7 477.9 211.3C480 211.9 482 212.7 483.9 213.7C485.8 214.7 487.6 215.9 489.2 217.5L489.4 217.7L489.1 217.8C487.1 218.3 485.1 218.5 483.1 218.5C481.1 218.5 479.1 218.2 477.1 217.8C476.2 217 475.3 216.3 474.3 215.7C473.3 215.1 472.2 214.5 471.1 214.1C470 213.7 468.8 213.4 467.7 213.1C466.4 213.1 465.2 213 464 213Z" fill="#9A2463"/>
</g>
<path opacity="0.5" fill-rule="evenodd" clip-rule="evenodd" d="M460.6 218C460.6 218 464.2 215 466.7 214.3C466.7 214.3 473 215.5 475.8 219.9C478.6 224.3 477.9 228.7 477.9 228.7H470.8C470.9 228.7 471.4 216.6 460.6 218Z" fill="#FBF9FA"/>
<path opacity="0.5" fill-rule="evenodd" clip-rule="evenodd" d="M202 238.4L451 237.3L401.4 228L202 238.4Z" fill="#9A2463"/>
<path opacity="0.5" fill-rule="evenodd" clip-rule="evenodd" d="M336.9 49.1L437.9 149.9L443.4 48.7L336.9 49.1Z" fill="#FBF9FA"/>
<path opacity="0.5" fill-rule="evenodd" clip-rule="evenodd" d="M198.9 128.9L240.4 171.6L200 171.8L198.9 128.9Z" fill="#FBF9FA"/>
<path opacity="0.5" fill-rule="evenodd" clip-rule="evenodd" d="M243.4 171.6L236.3 44.1L418.8 43.3L401.4 171.1L243.4 171.6Z" fill="#9A2463"/>
<path fill-rule="evenodd" clip-rule="evenodd" d="M202 238.4L201.5 231.4L462.4 217.4L463.1 224.7L202 238.4Z" fill="url(#paint15_linear)"/>
<path fill-rule="evenodd" clip-rule="evenodd" d="M201.5 231.4L253.5 215.7L420.2 206.4L462.4 217.4L201.5 231.4Z" fill="url(#paint16_radial)"/>
<path fill-rule="evenodd" clip-rule="evenodd" d="M212.8 229.4L453 216.6L451.7 213.8L416.8 206L256.8 214.8L214.4 226L212.8 229.4Z" fill="url(#paint17_linear)"/>
<path fill-rule="evenodd" clip-rule="evenodd" d="M214.4 226L451.7 213.8L416.8 206L256.8 214.8L214.4 226Z" fill="url(#paint18_radial)"/>
<path d="M443.2 211.9L224.3 223.5L225.6 223.1L442.2 211.7L443.2 211.9Z" fill="url(#paint19_linear)"/>
<path d="M434.7 210.1L234.5 220.8L235.7 220.5L433.7 209.9L434.7 210.1Z" fill="url(#paint20_linear)"/>
<path d="M429.2 208.9L241.5 218.9L242.7 218.6L428.4 208.7L429.2 208.9Z" fill="url(#paint21_linear)"/>
<path d="M423.3 207.3L248.6 217L249.9 216.7L422.5 207.1L423.3 207.3Z" fill="url(#paint22_linear)"/>
<path d="M420.2 206.4L254.8 215.3L255.7 215.1L418.9 206.4H420.2Z" fill="url(#paint23_linear)"/>
<path d="M248.3 220L248.2 219.8L253.9 218V218.2L254 218.3L248.3 220Z" fill="url(#paint24_linear)"/>
<path d="M259.9 216.4L259.8 216.1L264.4 214.7L264.5 214.9L259.9 216.4Z" fill="url(#paint25_linear)"/>
<path d="M232.1 225.1L230.9 225.2L240 222.4L240.1 222.6L232.1 225.1Z" fill="url(#paint26_linear)"/>
<path d="M274.7 214.3L274.5 214.1L275.8 213.6L276 213.9L274.7 214.3Z" fill="url(#paint27_linear)"/>
<path d="M254.3 221.9H254.2V221.7L254.1 221.6L261.1 219.1V219.3L261.2 219.4L254.3 221.9Z" fill="url(#paint28_linear)"/>
<path d="M265.9 217.6H265.8V217.5L265.7 217.4L270.8 215.5L271 215.7L265.9 217.6Z" fill="url(#paint29_linear)"/>
<path d="M425.4 210.6L420.7 209.3L420.9 209.1L425.6 210.4L425.4 210.6Z" fill="url(#paint30_linear)"/>
<path d="M415.1 207.7L412.5 206.9L412.7 206.7L415.3 207.5L415.1 207.7Z" fill="url(#paint31_linear)"/>
<path d="M439.3 214.5L432.3 212.5L432.5 212.3L440.5 214.4L439.3 214.5Z" fill="url(#paint32_linear)"/>
<path d="M411.4 209.8L406.7 208.2L407 208L411.7 209.6L411.4 209.8Z" fill="url(#paint33_linear)"/>
<path d="M421.2 213.1L415.4 211.1L415.5 211L415.4 210.9H415.5H415.6L421.4 212.9L421.2 213.1Z" fill="url(#paint34_linear)"/>
<path d="M404.4 207.4L402.9 206.8L403.2 206.6L404.7 207.2L404.4 207.4Z" fill="url(#paint35_linear)"/>
<path d="M406 211.7H405.8L402.9 210.2L403.2 210.1L406 211.5H405.9L406 211.7Z" fill="url(#paint36_linear)"/>
<path d="M399.5 208.5L397.8 207.7L398.1 207.5L399.8 208.4L399.5 208.5Z" fill="url(#paint37_linear)"/>
<path d="M414.2 215.7L409.9 213.6L410.2 213.5L414.9 215.7H414.2Z" fill="url(#paint38_linear)"/>
<path d="M390.8 208.1L390 207.5L390.4 207.4L391.2 207.9L390.8 208.1Z" fill="url(#paint39_linear)"/>
<path d="M400 214.1L396.8 212.1L397.2 211.9L400.3 214L400 214.1Z" fill="url(#paint40_linear)"/>
<path d="M394.9 210.7H394.7L392.1 208.9L392.5 208.8L395 210.5L394.8 210.6L394.9 210.7Z" fill="url(#paint41_linear)"/>
<path d="M387.7 212.6L385.9 211.1L386.3 211L388.1 212.4L387.7 212.6Z" fill="url(#paint42_linear)"/>
<path d="M383.7 209.4L382.6 208.5L383 208.4L384.2 209.3L383.7 209.4Z" fill="url(#paint43_linear)"/>
<path d="M393.2 216.8L390.4 214.6L390.8 214.5L393.9 216.8H393.2Z" fill="url(#paint44_linear)"/>
<path d="M377.1 211.6L375.5 209.8L375.9 209.7L377.5 211.5L377.1 211.6Z" fill="url(#paint45_linear)"/>
<path d="M374.6 208.9L374.4 208.7L374.9 208.6L375 208.8L374.6 208.9Z" fill="url(#paint46_linear)"/>
<path d="M380.4 215.1L378.4 213L378.9 212.9L380.9 215.1H380.4Z" fill="url(#paint47_linear)"/>
<path d="M367.1 210.3L366.5 209.3L367 209.2L367.5 210.2L367.1 210.3Z" fill="url(#paint48_linear)"/>
<path d="M371.3 217.9L370.1 215.7L370.6 215.6L371.8 217.9H371.3Z" fill="url(#paint49_linear)"/>
<path d="M368.9 213.5L368 212H368.5L369.3 213.5H368.9Z" fill="url(#paint50_linear)"/>
<path d="M281.5 215.2L281.2 214.9L285.4 213.1L285.6 213.3L281.5 215.2Z" fill="url(#paint51_linear)"/>
<path d="M261.4 223.7L261.2 223.5L267.3 220.9L267.6 221.2L261.4 223.7Z" fill="url(#paint52_linear)"/>
<path d="M273.3 218.7L273.1 218.5L277 216.8L277.2 217L273.3 218.7Z" fill="url(#paint53_linear)"/>
<path d="M288.6 216.4L288.4 216.2L291.9 214.4L292.2 214.5L288.6 216.4Z" fill="url(#paint54_linear)"/>
<path d="M294.6 213.3H294.5V213.2L294.4 213.1L294.5 213L294.8 213.2L294.6 213.3Z" fill="url(#paint55_linear)"/>
<path d="M280.6 220.5L280.3 220.3L285.1 217.9L285.4 218.1L280.6 220.5Z" fill="url(#paint56_linear)"/>
<path d="M301 214.1L300.7 213.9L302.8 212.7L303.1 212.9L301 214.1Z" fill="url(#paint57_linear)"/>
<path d="M286.6 222.4L286.2 222.2L290.1 219.8L290.4 219.9L286.6 222.4Z" fill="url(#paint58_linear)"/>
<path d="M294.8 217.6L294.4 217.4L297.4 215.7L297.7 215.9L294.8 217.6Z" fill="url(#paint59_linear)"/>
<path d="M306.2 215.4L305.8 215.3L308.4 213.5L308.8 213.6L306.2 215.4Z" fill="url(#paint60_linear)"/>
<path d="M300.2 219.6L299.9 219.4L300.1 219.2L303.5 216.9L303.9 217.1L300.2 219.6Z" fill="url(#paint61_linear)"/>
<path d="M313.9 216.5L313.5 216.4L315.2 214.8L315.6 214.9L313.9 216.5Z" fill="url(#paint62_linear)"/>
<path d="M310.9 218.8L311.4 218.7L310.9 218.8Z" fill="url(#paint63_linear)"/>
<path d="M317.5 213.1L317.1 213L318.3 211.8L318.5 211.9H318.7L317.5 213.1Z" fill="url(#paint64_linear)"/>
<path d="M327.5 211.4L327.1 211.3L327.6 211.4H327.5Z" fill="url(#paint65_linear)"/>
<path d="M322.6 218.1L322.1 218L323.8 215.8L324.2 215.9L322.6 218.1Z" fill="url(#paint66_linear)"/>
<path d="M325.4 214.4L325 214.3L326.3 212.5L326.7 212.6L325.4 214.4Z" fill="url(#paint67_linear)"/>
<path d="M333.9 215.4H333.4L334.1 213.8L334.5 213.9L333.9 215.4Z" fill="url(#paint68_linear)"/>
<path d="M335.3 212.1L334.8 212L335.2 210.9H335.7V211L335.3 212.1Z" fill="url(#paint69_linear)"/>
<path d="M343.1 213.4H342.6L342.9 211.6H343.3L343.1 213.4Z" fill="url(#paint70_linear)"/>
<path d="M343.5 210.6L343 210.5H343.5V210.6Z" fill="url(#paint71_linear)"/>
<path d="M342.5 217.1H342L342.3 214.9H342.8L342.5 217.1Z" fill="url(#paint72_linear)"/>
<path d="M351.8 211.1H351.3L351.1 210H351.6L351.8 211.1Z" fill="url(#paint73_linear)"/>
<path d="M352.6 214.4H352.1L351.7 212.9H352.2L352.6 214.4Z" fill="url(#paint74_linear)"/>
<path d="M359.4 209.7V209.6H359.9L359.4 209.7Z" fill="url(#paint75_linear)"/>
<path d="M361.9 216L361.1 213.9H361.6L362.4 216H361.9Z" fill="url(#paint76_linear)"/>
<path d="M360.5 212.4L359.8 210.7L360.3 210.6L361 212.4H360.5Z" fill="url(#paint77_linear)"/>
<path d="M215.6 229.3L215.3 230.1L449.7 217.6L450.2 216.7L215.6 229.3Z" fill="url(#paint78_linear)"/>
<path opacity="0.5" fill-rule="evenodd" clip-rule="evenodd" d="M429.6 217.8L429.3 214.9L447 214L446 216.9L429.6 217.8Z" fill="#FBF9FA"/>
<path opacity="0.5" fill-rule="evenodd" clip-rule="evenodd" d="M424.5 219.4L424.8 221.5L448.3 220.2L448.2 218.1L424.5 219.4Z" fill="#FBF9FA"/>
<path fill-rule="evenodd" clip-rule="evenodd" d="M173.4 136.7C173.4 136.7 175.8 132.6 196.1 130L194.6 100.5C194.6 100.5 175.9 101.1 166.9 106.3L173.4 136.7Z" fill="url(#paint79_linear)"/>
<path opacity="0.3" fill-rule="evenodd" clip-rule="evenodd" d="M192.5 130.4L191.2 100.6L194.6 100.4L196.1 129.9L192.5 130.4Z" fill="#953345"/>
<path fill-rule="evenodd" clip-rule="evenodd" d="M194.4 95.7C194.4 95.7 175.7 96.5 164 97.6L163.3 83.3C163.3 83.3 181 82 193.7 81.7L194.4 95.7Z" fill="url(#paint80_linear)"/>
<path opacity="0.3" fill-rule="evenodd" clip-rule="evenodd" d="M191 95.9L194.4 95.7L193.7 81.8H190.4L191 95.9Z" fill="#953345"/>
<path fill-rule="evenodd" clip-rule="evenodd" d="M0.700012 19.3C0.700012 19.3 10.2 21.8 19.3 31.3L27 23.1C27 23.1 22.4 12.6 8.60001 7.3L0.700012 19.3Z" fill="url(#paint81_linear)"/>
<path fill-rule="evenodd" clip-rule="evenodd" d="M21.8 110C21.8 110 30 93.5 46.8 86.9L60.8 108.6C60.8 108.6 48.6 113.4 41 125.7L21.8 110Z" fill="url(#paint82_linear)"/>
<path opacity="0.4" d="M507 299.5C568.193 299.5 617.8 272.995 617.8 240.3C617.8 207.605 568.193 181.1 507 181.1C445.807 181.1 396.2 207.605 396.2 240.3C396.2 272.995 445.807 299.5 507 299.5Z" fill="url(#paint83_radial)"/>
<path fill-rule="evenodd" clip-rule="evenodd" d="M411 24L409.8 43.4L407.2 83.3L401.4 171.1L243.4 171.6L236.3 44.1L235.3 26.8L397.7 24.2L411 24Z" fill="url(#paint84_linear)"/>
<path opacity="0.2" fill-rule="evenodd" clip-rule="evenodd" d="M275.6 31.6L277.2 46.1L368.1 45.1L369.7 31L275.6 31.6Z" fill="#3117D6"/>
<path d="M261.3 51.8H255.1V58H261.3V51.8Z" fill="#FF3B60"/>
<path d="M261.3 86.5H255.1V92.7H261.3V86.5Z" fill="#FF3B60"/>
<path d="M261.3 120.3H255.1V126.5H261.3V120.3Z" fill="#FF3B60"/>
<path d="M261.3 154.9H255.1V161.1H261.3V154.9Z" fill="#FF3B60"/>
<path d="M272.6 78.4C270.1 78.4 268.1 76.4 268.1 73.9C268.1 71.4 270.1 69.4 272.6 69.4C275.1 69.4 277.1 71.4 277.1 73.9C277 76.4 275 78.4 272.6 78.4ZM272.6 70.5C270.7 70.5 269.1 72.1 269.1 74C269.1 75.9 270.7 77.5 272.6 77.5C274.5 77.5 276.1 75.9 276.1 74C276.1 72 274.5 70.5 272.6 70.5Z" fill="#FF3B60"/>
<path d="M272.6 112.8C270.1 112.8 268.1 110.8 268.1 108.3C268.1 105.8 270.1 103.8 272.6 103.8C275.1 103.8 277.1 105.8 277.1 108.3C277.1 110.8 275 112.8 272.6 112.8ZM272.6 104.8C270.7 104.8 269.1 106.4 269.1 108.3C269.1 110.2 270.7 111.8 272.6 111.8C274.5 111.8 276.1 110.2 276.1 108.3C276.1 106.4 274.5 104.8 272.6 104.8Z" fill="#FF3B60"/>
<path d="M272.6 150.1C270.1 150.1 268.1 148.1 268.1 145.6C268.1 143.1 270.1 141.1 272.6 141.1C275.1 141.1 277.1 143.1 277.1 145.6C277.1 148.1 275 150.1 272.6 150.1ZM272.6 142.2C270.7 142.2 269.1 143.8 269.1 145.7C269.1 147.6 270.7 149.2 272.6 149.2C274.5 149.2 276.1 147.6 276.1 145.7C276.1 143.8 274.5 142.2 272.6 142.2Z" fill="#FF3B60"/>
<path d="M352 78.4C349.5 78.4 347.5 76.4 347.5 73.9C347.5 71.4 349.5 69.4 352 69.4C354.5 69.4 356.5 71.4 356.5 73.9C356.5 76.4 354.5 78.4 352 78.4ZM352 70.5C350.1 70.5 348.5 72.1 348.5 74C348.5 75.9 350.1 77.5 352 77.5C353.9 77.5 355.5 75.9 355.5 74C355.5 72 354 70.5 352 70.5Z" fill="#FF3B60"/>
<path d="M352 112.8C349.5 112.8 347.5 110.8 347.5 108.3C347.5 105.8 349.5 103.8 352 103.8C354.5 103.8 356.5 105.8 356.5 108.3C356.5 110.8 354.5 112.8 352 112.8ZM352 104.8C350.1 104.8 348.5 106.4 348.5 108.3C348.5 110.2 350.1 111.8 352 111.8C353.9 111.8 355.5 110.2 355.5 108.3C355.5 106.4 354 104.8 352 104.8Z" fill="#FF3B60"/>
<path d="M352 150.1C349.5 150.1 347.5 148.1 347.5 145.6C347.5 143.1 349.5 141.1 352 141.1C354.5 141.1 356.5 143.1 356.5 145.6C356.5 148.1 354.5 150.1 352 150.1ZM352 142.2C350.1 142.2 348.5 143.8 348.5 145.7C348.5 147.6 350.1 149.2 352 149.2C353.9 149.2 355.5 147.6 355.5 145.7C355.5 143.8 354 142.2 352 142.2Z" fill="#FF3B60"/>
<g opacity="0.2">
<path opacity="0.2" d="M390.3 86.5H357.1V90.7H390.3V86.5Z" fill="#6A1760"/>
<path opacity="0.2" d="M355.1 86.5H339.9V90.7H355.1V86.5Z" fill="#6A1760"/>
<g opacity="0.2">
<path opacity="0.2" d="M337 51.8H263.5V56H337V51.8Z" fill="#6A1760"/>
<path opacity="0.2" d="M293.4 58.7H263.5V62.9H293.4V58.7Z" fill="#6A1760"/>
<path opacity="0.2" d="M376.8 51.8H357.1V56H376.8V51.8Z" fill="#6A1760"/>
<path opacity="0.2" d="M343 58.7H296.6V62.9H343V58.7Z" fill="#6A1760"/>
<path opacity="0.2" d="M346.1 51.8H339.9V56H346.1V51.8Z" fill="#6A1760"/>
<path opacity="0.2" d="M355.1 51.8H348.9V56H355.1V51.8Z" fill="#6A1760"/>
<path opacity="0.2" d="M337 86.5H263.5V90.7H337V86.5Z" fill="#6A1760"/>
<path opacity="0.2" d="M293.4 93.4H263.5V97.6H293.4V93.4Z" fill="#6A1760"/>
<path opacity="0.2" d="M355.1 93.4H296.6V97.6H355.1V93.4Z" fill="#6A1760"/>
<path opacity="0.2" d="M390.3 154.9H357.1V159.1H390.3V154.9Z" fill="#6A1760"/>
<path opacity="0.2" d="M355.1 154.9H339.9V159.1H355.1V154.9Z" fill="#6A1760"/>
<path opacity="0.2" d="M337 154.9H263.5V159.1H337V154.9Z" fill="#6A1760"/>
<path opacity="0.2" d="M293.4 161.8H263.5V166H293.4V161.8Z" fill="#6A1760"/>
<path opacity="0.2" d="M355.1 161.8H296.6V166H355.1V161.8Z" fill="#6A1760"/>
<path opacity="0.2" d="M390.3 120.3H357.1V124.5H390.3V120.3Z" fill="#6A1760"/>
<path opacity="0.2" d="M355.1 120.3H339.9V124.5H355.1V120.3Z" fill="#6A1760"/>
<path opacity="0.2" d="M337 120.3H263.5V124.5H337V120.3Z" fill="#6A1760"/>
<path opacity="0.2" d="M293.4 127.2H263.5V131.4H293.4V127.2Z" fill="#6A1760"/>
<path opacity="0.2" d="M355.1 127.2H296.6V131.4H355.1V127.2Z" fill="#6A1760"/>
<path opacity="0.2" d="M307.9 72.3H279.8V75.3H307.9V72.3Z" fill="#6A1760"/>
<path opacity="0.2" d="M387.7 144.2H359.6V147.2H387.7V144.2Z" fill="#6A1760"/>
<path opacity="0.2" d="M307.9 106.8H279.8V109.8H307.9V106.8Z" fill="#6A1760"/>
<path opacity="0.2" d="M307.9 142.8H279.8V145.8H307.9V142.8Z" fill="#6A1760"/>
<path opacity="0.2" d="M290.5 148.1H279.8V151.1H290.5V148.1Z" fill="#6A1760"/>
<path opacity="0.2" d="M387.8 106.8H359.7V109.8H387.8V106.8Z" fill="#6A1760"/>
<path opacity="0.2" d="M387.8 69.9H359.7V72.9H387.8V69.9Z" fill="#6A1760"/>
<path opacity="0.2" d="M376.9 74.7H359.7V77.7H376.9V74.7Z" fill="#6A1760"/>
</g>
</g>
<path d="M262.6 76.3H260.2L259.6 77.7H258.2L261.4 70.3H261.5L264.7 77.7H263.1L262.6 76.3ZM262.2 75.1L261.5 73.4L260.8 75.1H262.2Z" fill="#967EA5"/>
<path d="M344.6 74.6C344.8 74.9 344.9 75.2 344.9 75.6C344.9 76.3 344.7 76.9 344.2 77.2C343.7 77.5 343.1 77.7 342.4 77.7H340V70.6H342.1C342.9 70.6 343.5 70.8 343.9 71.1C344.3 71.4 344.6 71.9 344.6 72.4C344.6 72.8 344.5 73.1 344.4 73.3C344.2 73.6 344 73.8 343.8 73.9C344.1 74.1 344.4 74.3 344.6 74.6ZM341.5 73.5H342.4C342.7 73.5 342.9 73.4 343 73.3C343.1 73.1 343.2 72.9 343.2 72.7C343.2 72.5 343.1 72.3 343 72.2C342.8 72.1 342.6 72 342.3 72H341.5V73.5ZM343.2 76.2C343.4 76.1 343.5 75.9 343.5 75.6C343.5 75.1 343.1 74.8 342.3 74.8H341.5V76.4H342.4C342.7 76.4 343 76.3 343.2 76.2Z" fill="#967EA5"/>
<path d="M262.6 110.9H260.2L259.6 112.3H258.2L261.4 104.9H261.5L264.7 112.3H263.1L262.6 110.9ZM262.2 109.7L261.5 108L260.8 109.7H262.2Z" fill="#967EA5"/>
<path d="M344.6 109.2C344.8 109.5 344.9 109.8 344.9 110.2C344.9 110.9 344.7 111.5 344.2 111.8C343.7 112.1 343.1 112.3 342.4 112.3H340V105.2H342.1C342.9 105.2 343.5 105.4 343.9 105.7C344.3 106 344.6 106.5 344.6 107C344.6 107.4 344.5 107.7 344.4 107.9C344.2 108.2 344 108.4 343.8 108.5C344.1 108.7 344.4 108.9 344.6 109.2ZM341.5 108.1H342.4C342.7 108.1 342.9 108 343 107.9C343.1 107.7 343.2 107.5 343.2 107.3C343.2 107.1 343.1 106.9 343 106.8C342.8 106.7 342.6 106.6 342.3 106.6H341.5V108.1ZM343.2 110.8C343.4 110.7 343.5 110.5 343.5 110.2C343.5 109.7 343.1 109.4 342.3 109.4H341.5V111H342.4C342.7 111 343 110.9 343.2 110.8Z" fill="#967EA5"/>
<path d="M262.6 147.9H260.2L259.6 149.3H258.2L261.4 141.9H261.5L264.7 149.3H263.1L262.6 147.9ZM262.2 146.8L261.5 145.1L260.8 146.8H262.2Z" fill="#967EA5"/>
<path d="M344.6 146.3C344.8 146.6 344.9 146.9 344.9 147.3C344.9 148 344.7 148.6 344.2 148.9C343.7 149.2 343.1 149.4 342.4 149.4H340V142.3H342.1C342.9 142.3 343.5 142.5 343.9 142.8C344.3 143.1 344.6 143.6 344.6 144.1C344.6 144.5 344.5 144.8 344.4 145C344.2 145.3 344 145.5 343.8 145.6C344.1 145.8 344.4 146 344.6 146.3ZM341.5 145.1H342.4C342.7 145.1 342.9 145 343 144.9C343.1 144.7 343.2 144.5 343.2 144.3C343.2 144.1 343.1 143.9 343 143.8C342.8 143.7 342.6 143.6 342.3 143.6H341.5V145.1ZM343.2 147.8C343.4 147.7 343.5 147.5 343.5 147.2C343.5 146.7 343.1 146.4 342.3 146.4H341.5V148H342.4C342.7 148 343 148 343.2 147.8Z" fill="#967EA5"/>
<path d="M272.6 76C273.705 76 274.6 75.1046 274.6 74C274.6 72.8954 273.705 72 272.6 72C271.495 72 270.6 72.8954 270.6 74C270.6 75.1046 271.495 76 272.6 76Z" fill="#967EA5"/>
<path d="M352 110.3C353.105 110.3 354 109.405 354 108.3C354 107.195 353.105 106.3 352 106.3C350.895 106.3 350 107.195 350 108.3C350 109.405 350.895 110.3 352 110.3Z" fill="#967EA5"/>
<path d="M352 147.9C353.105 147.9 354 147.005 354 145.9C354 144.795 353.105 143.9 352 143.9C350.895 143.9 350 144.795 350 145.9C350 147.005 350.895 147.9 352 147.9Z" fill="#967EA5"/>
<path fill-rule="evenodd" clip-rule="evenodd" d="M345.7 159.5L342.6 145.7L355.7 152.6L348.6 153.8L345.7 159.5Z" fill="white"/>
<path d="M345.5 160.8L341.9 144.9L356.9 152.8L348.8 154.2L345.5 160.8ZM343.2 146.5L345.8 158.3L348.3 153.5L354.4 152.4L343.2 146.5Z" fill="url(#paint85_linear)"/>
<path opacity="0.5" fill-rule="evenodd" clip-rule="evenodd" d="M243.5 225.7L230.9 229.8L230.1 237L212.8 239.1L148.3 239.6C148.3 239.6 145.7 246.3 146.5 251H127C127 251 127.8 243.4 130.6 239.6L120.5 238.4L243.5 225.7Z" fill="#6A1760"/>
<path fill-rule="evenodd" clip-rule="evenodd" d="M120.5 238.4C120.5 238.4 115.9 229.9 118.2 215L209.7 209.1L243.9 206V207.7L240 208.2L239.8 223.4H243.7V225.7L208.3 235.9L120.5 238.4Z" fill="url(#paint86_linear)"/>
<path fill-rule="evenodd" clip-rule="evenodd" d="M239.9 208.2L209.7 212.2L121.5 217.8C121.5 217.8 117.8 225.4 122.9 237L208 233L239.8 223.3L239.9 208.2Z" fill="url(#paint87_linear)"/>
<path fill-rule="evenodd" clip-rule="evenodd" d="M122.8 237H124C124 237 119.4 230.1 122.8 217.7H120.7C120.7 217.8 118.2 227.1 122.8 237Z" fill="url(#paint88_linear)"/>
<path fill-rule="evenodd" clip-rule="evenodd" d="M122.8 217.8L123.6 217.7C123.6 217.7 121 224.6 124 237C124 237 119 230 122.8 217.8Z" fill="#967EA5"/>
<path opacity="0.2" fill-rule="evenodd" clip-rule="evenodd" d="M124 221.3L206.2 214.9L239.1 209.6L206.1 215.4L124 221.3Z" fill="#6A1760"/>
<path opacity="0.2" fill-rule="evenodd" clip-rule="evenodd" d="M129.2 234.9L205.7 230.6L238.8 222.4L205.5 230.3L129.2 234.9Z" fill="#6A1760"/>
<path opacity="0.2" fill-rule="evenodd" clip-rule="evenodd" d="M125.5 233.9L205.5 229.2L239.7 221.9L205.4 228.6L125.5 233.9Z" fill="#6A1760"/>
<path opacity="0.5" fill-rule="evenodd" clip-rule="evenodd" d="M208 233.9L243.5 223.4V225.7L208.2 235.8L208 233.9Z" fill="#6A1760"/>
<path opacity="0.5" fill-rule="evenodd" clip-rule="evenodd" d="M243.8 206V207.7L239.9 208.2L239.7 223.4L207.9 233.1H206.2C203.6 221.5 206.1 215.4 206.1 215.4L122.4 219.4L120.8 217.8L209.8 212.3V209.2L243.8 206Z" fill="#6A1760"/>
<path fill-rule="evenodd" clip-rule="evenodd" d="M118.1 215L169.2 210.1L243.8 206L209.7 209.1L118.1 215Z" fill="#FF9B54"/>
<path fill-rule="evenodd" clip-rule="evenodd" d="M137.9 233.2C137.9 233.2 125.6 237.3 125.6 246.9L145 246.1C145 246.1 145.3 238.2 153.2 232.3L137.9 233.2Z" fill="url(#paint89_linear)"/>
<path opacity="0.5" fill-rule="evenodd" clip-rule="evenodd" d="M153.1 232.3V235.6L150.6 235.7V237.2L148.3 237.3C148.3 237.3 149.7 234.6 153.1 232.3Z" fill="#6A1760"/>
<path fill-rule="evenodd" clip-rule="evenodd" d="M17.4 188.9L89.6 177.3L132.8 172.6L132.5 170L89.1 173.9L17.8 186.6C17.8 186.6 14.7 181 15.9 175.5L81 141.8L130.2 144.2L129.8 141.8L81.2 139L13.9 174C13.9 173.9 12.5 180.7 17.4 188.9Z" fill="url(#paint90_linear)"/>
<path fill-rule="evenodd" clip-rule="evenodd" d="M130.2 144.2L82 167.8L15.9 175.5L82 141.3L130.2 144.2Z" fill="#AA330F"/>
<path fill-rule="evenodd" clip-rule="evenodd" d="M15.9 175.5C15.9 175.5 14.5 181.6 17.9 187.3L88.5 173.9L130.4 170.1C130.4 170.1 126.7 164.3 125.9 155L80.6 156.7L15.9 175.5Z" fill="url(#paint91_linear)"/>
<path fill-rule="evenodd" clip-rule="evenodd" d="M20.3 186.9C20.3 186.9 17 179.3 17.8 175L15.9 175.5C15.9 175.5 14.7 182.5 17.9 187.3L20.3 186.9Z" fill="#CA4F0F"/>
<path opacity="0.5" fill-rule="evenodd" clip-rule="evenodd" d="M80.7 156.7C80.7 156.7 81.5 169.3 85 174.2L130.5 170.1C130.5 170.1 127.1 164.4 126 155L80.7 156.7Z" fill="#6A1760"/>
<path fill-rule="evenodd" clip-rule="evenodd" d="M17.8 175L81 149L126 151.5L120.9 155.2L80.7 156.7L17.8 175Z" fill="url(#paint92_linear)"/>
<path opacity="0.5" fill-rule="evenodd" clip-rule="evenodd" d="M126 151.5L81 149L81.1001 150L22.3 173.7L80.7 156.7L120.9 155.2L126 151.5Z" fill="#6A1760"/>
<path opacity="0.3" fill-rule="evenodd" clip-rule="evenodd" d="M126 151.5L81.1001 150L22.3 173.7L80.7 156.7L120.9 155.2L126 151.5Z" fill="#6A1760"/>
<path opacity="0.5" fill-rule="evenodd" clip-rule="evenodd" d="M88.6 173.9L89.6 177.3L132.8 172.6L132.5 170L88.6 173.9Z" fill="#B61760"/>
<path opacity="0.5" fill-rule="evenodd" clip-rule="evenodd" d="M81.2 138.9L82 141.3L130.2 144.2L129.8 141.8L81.2 138.9Z" fill="#B61760"/>
<path opacity="0.2" fill-rule="evenodd" clip-rule="evenodd" d="M20.2 179.1L82 166.1V165.3L20.2 179.1Z" fill="#6A1760"/>
<path opacity="0.2" fill-rule="evenodd" clip-rule="evenodd" d="M83.3 170.8L70.8 173.3L83.7 171.8L83.3 170.8Z" fill="#6A1760"/>
<path fill-rule="evenodd" clip-rule="evenodd" d="M17.4 188.9L132.8 172.6L89.6 177.3L17.4 188.9Z" fill="#AA330F"/>
<path fill-rule="evenodd" clip-rule="evenodd" d="M102.8 210.9L181.2 204.8L228.3 201.5C228.3 201.5 233.3 190.6 228.3 178.9L183 176.6L102.4 181.8L102.7 184.8L106.9 184.7C106.9 184.7 111.2 195.7 107.3 207.4L102.5 208.1L102.8 210.9Z" fill="url(#paint93_linear)"/>
<path fill-rule="evenodd" clip-rule="evenodd" d="M106.8 184.6L181.2 179.9C181.2 179.9 184.7 186.3 182.9 201.5L107.2 207.3C107.2 207.3 110.5 196.2 106.8 184.6Z" fill="url(#paint94_linear)"/>
<path opacity="0.5" fill-rule="evenodd" clip-rule="evenodd" d="M182.9 176.6C182.9 176.6 187.1 185.6 185.2 204.4L228.3 201.5C228.3 201.5 233.4 189.8 228.3 178.9L182.9 176.6Z" fill="#6A1760"/>
<path opacity="0.5" fill-rule="evenodd" clip-rule="evenodd" d="M106.8 184.6L107.5 186.7C107.5 186.7 163.7 181.5 182.7 185C182.7 185 182 181.1 181.2 179.9L106.8 184.6Z" fill="#6A1760"/>
<path opacity="0.2" fill-rule="evenodd" clip-rule="evenodd" d="M108.1 190.2L168.8 186.7L108.3 190.7L108.1 190.2Z" fill="#6A1760"/>
<path opacity="0.2" fill-rule="evenodd" clip-rule="evenodd" d="M108 204.4L120 203.7L107.9 205.1L108 204.4Z" fill="#6A1760"/>
<path fill-rule="evenodd" clip-rule="evenodd" d="M194.8 177.1C194.8 177.1 199.4 188.7 195.8 203.7L204.9 203.1C204.9 203.1 207 188.7 203 177.6L194.8 177.1Z" fill="#B5A4BF"/>
<path fill-rule="evenodd" clip-rule="evenodd" d="M220.7 178.5C220.7 178.5 224.9 186.1 222.3 201.9L226.7 201.6C226.7 201.6 230.2 191.2 225.9 178.7L220.7 178.5Z" fill="#B5A4BF"/>
<path opacity="0.5" fill-rule="evenodd" clip-rule="evenodd" d="M136.6 188.8C136.6 188.8 132.3 193.1 131.6 196.5L122.2 196.8C122.2 196.8 124 191.7 127.8 189.3L136.6 188.8Z" fill="#6A1760"/>
<path fill-rule="evenodd" clip-rule="evenodd" d="M127.8 189.4C127.8 189.4 122.4 190.5 116.9 193.6L131 192.7C131 192.7 132.8 190.6 136.7 188.9L127.8 189.4Z" fill="url(#paint95_linear)"/>
<path opacity="0.2" fill-rule="evenodd" clip-rule="evenodd" d="M149.5 197.8L183.3 195.7V196.9L149.5 197.8Z" fill="#6A1760"/>
<path opacity="0.5" fill-rule="evenodd" clip-rule="evenodd" d="M162.6 197.2L160.3 199.5L152.8 199.9L153.6 197.6L162.6 197.2Z" fill="#6A1760"/>
<path fill-rule="evenodd" clip-rule="evenodd" d="M153.6 197.6L150.1 199.2L159.7 198.8L162.6 197.2L153.6 197.6Z" fill="url(#paint96_linear)"/>
<path fill-rule="evenodd" clip-rule="evenodd" d="M489.6 126.4C489.3 128.6 471.2 129.1 449.5 126.1C427.8 123.1 410.6 117.9 410.9 115.7C411.2 113.5 429.2 113.2 450.9 116.2C472.6 119.3 489.9 124.2 489.6 126.4Z" fill="url(#paint97_linear)"/>
<path fill-rule="evenodd" clip-rule="evenodd" d="M409.7 110.4L410.9 115.7L489.5 126.6L492.1 121.8L409.7 110.4Z" fill="url(#paint98_linear)"/>
<path fill-rule="evenodd" clip-rule="evenodd" d="M506.5 18.2C506.2 20.4 486.3 20.4 464.6 17.4C442.9 14.4 423.7 9 424 6.8C424.3 4.6 444.1 5.6 465.8 8.7C488.4 11.8 506.8 16 506.5 18.2Z" fill="url(#paint99_radial)"/>
<path fill-rule="evenodd" clip-rule="evenodd" d="M424 6.8L425.2 12.1L503.9 23L506.5 18.2L424 6.8Z" fill="url(#paint100_radial)"/>
<path fill-rule="evenodd" clip-rule="evenodd" d="M492.1 121.8C491.8 124 473.1 123.3 450.3 120.1C427.5 116.9 409.3 112.6 409.6 110.4C409.9 108.2 428.6 108.9 451.4 112.1C474.2 115.2 492.4 119.6 492.1 121.8Z" fill="url(#paint101_linear)"/>
<path fill-rule="evenodd" clip-rule="evenodd" d="M425.2 12.1C425.2 12.1 457 19.4 503.8 23C503.9 23 482.3 15.1 425.2 12.1Z" fill="url(#paint102_linear)"/>
<path opacity="0.72" fill-rule="evenodd" clip-rule="evenodd" d="M498.5 22.4C472.9 17.2 454.9 14.4 428.5 12.7C428.5 12.7 419.6 44.6 455.2 66.8L456.6 67L458 67.2C498.3 55.5 498.5 22.4 498.5 22.4Z" fill="url(#paint103_linear)"/>
<path opacity="0.72" fill-rule="evenodd" clip-rule="evenodd" d="M414.8 111.6C438.9 117.6 462.6 120.9 484.8 121.3C484.8 121.3 493.7 89.4 458.1 67.2L456.7 67L455.3 66.8C414.9 78.4 414.8 111.6 414.8 111.6Z" fill="url(#paint104_linear)"/>
<path fill-rule="evenodd" clip-rule="evenodd" d="M440.3 50.2C440.3 50.2 447.9 62.2 456.6 64.2C465.1 66.2 483 50.1 483 50.1C483 50.1 458.5 59 440.3 50.2Z" fill="url(#paint105_linear)"/>
<path fill-rule="evenodd" clip-rule="evenodd" d="M440.3 50.2C440.3 50.2 449.1 46.4 457 50.6C457.2 54.4 483.1 50.1 483.1 50.1C483.1 50.1 471.1 56.3 457.2 54.4C443.3 52.6 440.3 50.2 440.3 50.2Z" fill="url(#paint106_linear)"/>
<path fill-rule="evenodd" clip-rule="evenodd" d="M424 93.3C424 93.3 419 99.7 418.8 109.4C418.8 109.4 435.3 113.6 450.8 116.1C466.3 118.5 483 118.5 483 118.5C483 118.5 485.5 101.6 478.2 89.6C478.2 89.6 474.7 97.8 468.5 101.1C462.3 104.4 463.2 101.9 445.9 99.3C428.8 96.6 424 93.3 424 93.3Z" fill="url(#paint107_linear)"/>
<path fill-rule="evenodd" clip-rule="evenodd" d="M478.3 89.6C478.3 89.6 471.3 94.5 459.6 95.8C447.9 97 444.2 92.9 436.4 92.7C428.6 92.5 424 93.4 424 93.4C424 93.4 429.7 97.6 443.9 100.1C458.1 102.6 465.9 105.1 472 101.6C478.2 98.1 478.3 89.6 478.3 89.6Z" fill="url(#paint108_linear)"/>
<path fill-rule="evenodd" clip-rule="evenodd" d="M440.3 96.4C440.3 96.4 461.1 100.8 470.3 96.4C470.3 96.4 460.4 86.3 457.4 84.8C454.3 83.4 441 92.8 440.3 96.4Z" fill="url(#paint109_linear)"/>
<path fill-rule="evenodd" clip-rule="evenodd" d="M455.6 63.6C455.6 63.6 457.6 72.8 455.6 84.8L457.8 85.1C457.8 85.1 456.1 71.4 458.3 64L455.6 63.6Z" fill="url(#paint110_linear)"/>
<path fill-rule="evenodd" clip-rule="evenodd" d="M457 50.6C457 50.6 450.7 53.2 440.3 50.2C440.3 50.2 449.1 46.5 457 50.6Z" fill="#FFE74C"/>
<path fill-rule="evenodd" clip-rule="evenodd" d="M459.3 52L453.3 53.9C453.3 53.9 456.3 55.2 466.2 54.7C476.2 54.2 483 50.2 483 50.2C483 50.2 472.5 52 466.5 52C460.5 52 459.3 52 459.3 52Z" fill="#FFE74C"/>
<path opacity="0.5" fill-rule="evenodd" clip-rule="evenodd" d="M428.5 12.3V5.7C428.5 5.7 434.2 5.4 441.4 6.1L440.9 13.2C440.9 13.1 433.3 12.6 428.5 12.3Z" fill="#FBF9FA"/>
<path opacity="0.5" fill-rule="evenodd" clip-rule="evenodd" d="M496.3 20.9L498.5 14.7C498.5 14.7 503 16 503.9 16.4L501 22.1L496.3 20.9Z" fill="#FBF9FA"/>
<path opacity="0.5" fill-rule="evenodd" clip-rule="evenodd" d="M414.8 118.3L413.5 112.7L420.4 114.7V120.2C420.4 120.2 416.3 119.1 414.8 118.3Z" fill="#FBF9FA"/>
<path opacity="0.5" fill-rule="evenodd" clip-rule="evenodd" d="M479.9 128.2L481.3 123.1C481.3 123.1 486 123.6 489.7 122.9L486.7 127.7C486.6 127.7 482.4 128.1 479.9 128.2Z" fill="#FBF9FA"/>
<path fill-rule="evenodd" clip-rule="evenodd" d="M416.9 112.1C416.9 112.1 418.5 95 429.3 83.3C440.1 71.6 455.3 68.2 455.3 68.2L458.4 69.1C458.4 69.1 445.7 87.6 441.5 117.2C441.5 117.2 420.7 113.8 416.9 112.1Z" fill="url(#paint111_linear)"/>
<path fill-rule="evenodd" clip-rule="evenodd" d="M456 65.7C456 65.7 440.2 56.5 435 39.9C429.7 23.4 432.5 13.1 432.5 13.1L444.2 14.9C444.2 14.9 439.4 38.8 456 65.7Z" fill="url(#paint112_linear)"/>
<path fill-rule="evenodd" clip-rule="evenodd" d="M498.5 22.4C498.5 22.4 497.4 56 458 67.2C458 67.2 492.1 56.8 492.9 21.3L498.5 22.4Z" fill="url(#paint113_linear)"/>
<path fill-rule="evenodd" clip-rule="evenodd" d="M477 120.2C477 120.2 481.4 105 481.7 97.5C481.7 97.5 486.2 108.1 484.1 120.2H477Z" fill="url(#paint114_linear)"/>
<path fill-rule="evenodd" clip-rule="evenodd" d="M432.3 81.7C432.3 81.7 439.6 79.5 441.6 74.4C441.6 74.4 436.5 74.9 432.3 81.7Z" fill="white"/>
<path fill-rule="evenodd" clip-rule="evenodd" d="M432.3 24.7C432.3 24.7 429.6 30 434.9 34.3C434.9 34.3 436.9 26.7 432.3 24.7Z" fill="white"/>
<path fill-rule="evenodd" clip-rule="evenodd" d="M484.6 48.7C484.6 48.7 487.2 43.9 490 42.6C490 42.6 488.1 47.3 484.6 48.7Z" fill="white"/>
<path fill-rule="evenodd" clip-rule="evenodd" d="M566.3 159.8L493.6 131.2L487.9 132.4L490.9 134.5C492 135.1 492.1 135.7 491 136C489.9 136.2 488.2 136 487.1 135.4C486.6 135.2 486.3 134.9 486.3 134.7C486.2 134.5 486.3 134.3 486.5 134.1L484.1 133.3L475.6 135.2L479.3 137.3C480.4 137.9 480.4 138.6 479.3 138.9C478.2 139.2 476.5 138.9 475.4 138.3C474.9 138 474.7 137.8 474.6 137.5C474.5 137.3 474.6 137.1 474.8 136.9L472.6 135.9L463.6 138.2L465.3 139.7C465.5 139.7 465.6 139.7 465.8 139.8C466.4 139.9 467 140.1 467.4 140.4C468.5 141 468.5 141.8 467.4 142.1C466.3 142.4 464.5 142.2 463.5 141.5C463 141.2 462.8 140.9 462.7 140.6C462.7 140.4 462.7 140.2 462.9 140L460.6 138.9L451.2 141.5L453.2 143.1C453.4 143.1 453.5 143.2 453.7 143.2C454.3 143.3 454.9 143.5 455.3 143.8C456.4 144.5 456.3 145.3 455.2 145.6C454.1 146 452.3 145.7 451.3 145C450.9 144.7 450.6 144.4 450.6 144.1C450.6 144 450.6 143.9 450.6 143.9L447.4 142.6L439.1 145.2L440.7 146.9C440.9 146.9 441.2 147 441.4 147C442 147.1 442.6 147.4 443 147.7C444 148.4 443.9 149.3 442.8 149.7C441.7 150.1 439.9 149.8 438.9 149.1C438.5 148.8 438.2 148.5 438.2 148.1C438.2 148 438.2 147.8 438.3 147.7C437.5 147.3 436.4 146.8 435.4 146.4L426.2 149.5L427.5 151.2C428 151.2 428.5 151.2 428.9 151.3C429.5 151.4 430.1 151.7 430.5 152C431.5 152.8 431.4 153.7 430.2 154.1C429 154.5 427.3 154.2 426.3 153.5C425.9 153.2 425.7 152.8 425.6 152.5C425.6 152.2 425.7 151.9 426 151.7L423.6 150.4L414.5 152.7L484.7 195.2C488.6 197.1 495.2 196.8 499.7 194.6L557.3 168.5L566.4 164.8C570.4 163.2 570.4 161 566.3 159.8Z" fill="url(#paint115_linear)"/>
<path d="M439.1 164.8L438.8 164.6L512.7 140.1L513.1 140.3L439.1 164.8Z" fill="#E54D98"/>
<path d="M445 169.8L444.6 169.6L519.5 143.4L520 143.6L445 169.8Z" fill="#C9A4AC"/>
<path d="M452.6 174L452.2 173.8L527.9 146.3L528.4 146.4L452.6 174Z" fill="#C9A4AC"/>
<path d="M459.4 178.4L459 178.2L535.7 149.2L536.1 149.3L459.4 178.4Z" fill="#C9A4AC"/>
<path d="M466.3 182.7L465.9 182.5L543.5 151.9L543.9 152.1L466.3 182.7Z" fill="#C9A4AC"/>
<path d="M473.3 186.8L472.9 186.6L551.5 155.2L552 155.4L473.3 186.8Z" fill="#C9A4AC"/>
<path d="M480.4 190.8L479.9 190.6L557.8 157.2L558.3 157.3L480.4 190.8Z" fill="#C9A4AC"/>
<path d="M489.8 193.6L489.4 193.4L566.1 159.7L566.6 159.8L489.8 193.6Z" fill="#C9A4AC"/>
<path d="M558.1 167.5L479.6 133.4L480 133.3L558.6 167.3L558.1 167.5Z" fill="#E54D98"/>
<path opacity="0.5" fill-rule="evenodd" clip-rule="evenodd" d="M473 169L516.8 186.8L528 181.8L488.6 169.8L474.6 168.1L473 169Z" fill="#9A2463"/>
<path fill-rule="evenodd" clip-rule="evenodd" d="M482.2 157.9L557.4 98.1L563.5 106.3L486.3 163.4L482.2 157.9Z" fill="url(#paint116_linear)"/>
<path fill-rule="evenodd" clip-rule="evenodd" d="M482.2 157.9L473 169L474.1 169.3L486.3 163.4L487.4 162H485.5L486.2 159.6L483.2 159.3L484.2 157.3L482.2 157.9Z" fill="#FFAA68"/>
<path fill-rule="evenodd" clip-rule="evenodd" d="M475.3 166.2L476.2 168.3L474.1 169.3L473 169L475.3 166.2Z" fill="url(#paint117_linear)"/>
<path fill-rule="evenodd" clip-rule="evenodd" d="M555.3 99.8L556.5 102.5L559.4 106.6L561.3 108L563.5 106.3L557.4 98.1L555.3 99.8Z" fill="url(#paint118_radial)"/>
<path fill-rule="evenodd" clip-rule="evenodd" d="M557.4 98.1L558.2 100.5L561.3 104.7L563.4 106.2L566.8 102.7C566.8 102.7 566.5 99.7 561.7 95.8L557.4 98.1Z" fill="#FF3E79"/>
<path opacity="0.5" fill-rule="evenodd" clip-rule="evenodd" d="M561.4 104.8L485.5 162H487.4L486.3 163.4L563.5 106.3L561.4 104.8Z" fill="#9C4C7A"/>
<path fill-rule="evenodd" clip-rule="evenodd" d="M482.2 157.9L473 169L473.6 169.1L483.7 158.9L558.3 100.6L557.4 98.1L482.2 157.9Z" fill="url(#paint119_linear)"/>
<path fill-rule="evenodd" clip-rule="evenodd" d="M561.9 95.9C561.9 95.9 563.1 101.1 567 102.8C566.9 102.8 566.5 98.6 561.9 95.9Z" fill="url(#paint120_linear)"/>
<path fill-rule="evenodd" clip-rule="evenodd" d="M602.6 198.1L596.2 230.4C596.2 230.4 590.4 231.5 581.7 231.3C566.4 231.1 542.2 227.2 524.6 207.2L534.3 184.5L536.6 179.2L602.6 198.1Z" fill="url(#paint121_radial)"/>
<path opacity="0.5" fill-rule="evenodd" clip-rule="evenodd" d="M602.6 198.1L596.2 230.4C596.2 230.4 590.4 231.5 581.7 231.3C568.6 207.9 534.3 184.5 534.3 184.5L536.6 179.2L602.6 198.1Z" fill="#6A1760"/>
<path fill-rule="evenodd" clip-rule="evenodd" d="M511.2 155.4L510.8 157.4L553.8 197.9L641.7 210.9L643 207.9L511.2 155.4Z" fill="url(#paint122_radial)"/>
<path fill-rule="evenodd" clip-rule="evenodd" d="M511.2 155.4L590.5 169.8L643 207.9L556.3 194.5L511.2 155.4Z" fill="url(#paint123_linear)"/>
<path opacity="0.3" fill-rule="evenodd" clip-rule="evenodd" d="M553.8 197.9L556.3 194.5L643 207.9L641.7 210.9L553.8 197.9Z" fill="#6A1760"/>
<path fill-rule="evenodd" clip-rule="evenodd" d="M659.7 247.7C658.4 252.3 655.9 253.2 655.9 253.2C648.3 249.6 641.2 243.6 637 239.5L636.9 239.4C636.8 239.3 636.8 239.3 636.7 239.2C636.5 239 636.3 238.8 636.1 238.7C636.4 239 636.7 239.3 637 239.6C637.2 239.8 637.4 240 637.6 240.2L637.8 240.4C648.7 251.1 654.3 254.7 654.3 254.7L652.3 256C642.9 248.8 632.3 236.4 631.6 235.6C631.6 235.6 631.7 235.7 631.7 235.8C634.3 239.4 637.1 242.8 639.9 245.8C640.1 246 640.2 246.2 640.4 246.3C640.9 246.9 641.4 247.4 641.9 248L642.2 248.4C642.3 248.5 642.5 248.7 642.6 248.8C647.1 253.5 650.7 256.7 650.7 256.7C640.4 264 632.9 262.9 632.9 262.9C625.9 250.6 627.2 235.6 627.2 235.6C623.7 233.6 622.3 231.5 621.9 229.7C621.3 226.6 623.5 224.2 623.5 224.2C627 225.3 627.2 222.8 627.2 222.8C631.3 224.7 632.7 227 633.2 229C633.2 229 633.2 229 633.2 229.1C633.2 229.2 633.2 229.3 633.2 229.4C633.5 231.2 632.9 232.7 632.8 232.9C632.8 232.9 632.8 232.9 632.8 233L633.5 233.6C644.3 242.8 659.7 247.7 659.7 247.7Z" fill="url(#paint124_linear)"/>
<path opacity="0.5" fill-rule="evenodd" clip-rule="evenodd" d="M571.8 179.3L616.6 204.8V207.2L621.3 207.9L621.9 204.1L571.8 179.3Z" fill="#6A1760"/>
<path fill-rule="evenodd" clip-rule="evenodd" d="M571.8 179.3L574.7 178.1L624.4 203.6C624.4 203.6 624 218.7 627.4 222.7C627.4 222.7 628.5 226.2 623.7 224.1C623.7 224.1 624.2 223.8 620.4 205.5L571.8 179.3Z" fill="url(#paint125_linear)"/>
<path opacity="0.5" fill-rule="evenodd" clip-rule="evenodd" d="M636.6 239.2C636.5 239.1 636.4 239 636.3 238.9L636.8 239.4L636.9 239.5L637.5 240.1C637.3 239.9 637.1 239.7 636.9 239.5C636.8 239.4 636.7 239.3 636.6 239.2Z" fill="#9A2463"/>
<path opacity="0.3" fill-rule="evenodd" clip-rule="evenodd" d="M629.4 236.3C629.4 236.3 628.4 249.1 633 262.7C626 250.4 627.3 235.4 627.3 235.4C623.8 233.4 622.4 231.3 622 229.5C622 229.5 623.8 233.9 628.3 233.3C632.9 232.8 633.3 228.8 633.3 228.8C633.3 228.8 633.3 228.8 633.3 228.9C633.4 229.3 633.6 231 632.9 232.7C632.9 232.7 632.9 232.7 632.9 232.8L633.6 233.4H632.6C632.6 233.4 633.3 235.6 636.3 238.8L631.8 234.1L630.9 234.6L631.7 235.4C631.7 235.4 631.7 235.4 631.7 235.5C631.7 235.5 631.8 235.6 631.8 235.7C632.6 236.8 636.3 241.6 640 245.7C640.2 245.9 640.3 246.1 640.5 246.2C640.9 246.7 641.4 247.2 641.8 247.6L630.2 235.7L629.4 236.3Z" fill="#9A2463"/>
<path opacity="0.5" fill-rule="evenodd" clip-rule="evenodd" d="M524.6 207.3C524.6 207.3 549.3 234.8 596.2 230.5C596.2 230.4 553.5 238.8 524.6 207.3Z" fill="#6A1760"/>
<path opacity="0.5" fill-rule="evenodd" clip-rule="evenodd" d="M659.5 260.1C659.3 259.9 659.2 259.8 659 259.6L659.1 259.7L659.5 260.1Z" fill="#9A2463"/>
<defs>
<linearGradient id="paint0_linear" x1="191.419" y1="127.234" x2="163.88" y2="5.17803" gradientUnits="userSpaceOnUse">
<stop offset="0.0171145" stop-color="#FFDAC7"/>
<stop offset="1" stop-color="#FFF3C2"/>
</linearGradient>
<linearGradient id="paint1_linear" x1="140.999" y1="263.486" x2="523.576" y2="263.486" gradientUnits="userSpaceOnUse">
<stop stop-color="#C72A16"/>
<stop offset="0.998" stop-color="#BA2244"/>
</linearGradient>
<linearGradient id="paint2_linear" x1="111.24" y1="238.743" x2="549.593" y2="238.743" gradientUnits="userSpaceOnUse">
<stop stop-color="#FF8647"/>
<stop offset="1" stop-color="#FFB934"/>
</linearGradient>
<linearGradient id="paint3_linear" x1="374.68" y1="236.744" x2="367.776" y2="194.887" gradientUnits="userSpaceOnUse">
<stop stop-color="#603082"/>
<stop offset="0.9944" stop-color="#2A0E51"/>
</linearGradient>
<radialGradient id="paint4_radial" cx="0" cy="0" r="1" gradientUnits="userSpaceOnUse" gradientTransform="translate(332.67 47.171) scale(132.561)">
<stop stop-color="#471371"/>
<stop offset="0.9944" stop-color="#20003B"/>
</radialGradient>
<radialGradient id="paint5_radial" cx="0" cy="0" r="1" gradientUnits="userSpaceOnUse" gradientTransform="translate(311.75 165.274) scale(150.035 108.715)">
<stop stop-color="#00FFFF"/>
<stop offset="0.9944" stop-color="#26A9FF"/>
</radialGradient>
<radialGradient id="paint6_radial" cx="0" cy="0" r="1" gradientUnits="userSpaceOnUse" gradientTransform="translate(355.233 181.624) scale(70.1644 93.1082)">
<stop stop-color="#AEA8C2"/>
<stop offset="0.9829" stop-color="#8C74B1"/>
</radialGradient>
<radialGradient id="paint7_radial" cx="0" cy="0" r="1" gradientUnits="userSpaceOnUse" gradientTransform="translate(320.166 197.953) scale(12.6812 12.1526)">
<stop stop-color="#471371"/>
<stop offset="0.9944" stop-color="#20003B"/>
</radialGradient>
<radialGradient id="paint8_radial" cx="0" cy="0" r="1" gradientUnits="userSpaceOnUse" gradientTransform="translate(320.166 215.686) scale(15.8732)">
<stop stop-color="#471371"/>
<stop offset="0.9944" stop-color="#20003B"/>
</radialGradient>
<radialGradient id="paint9_radial" cx="0" cy="0" r="1" gradientUnits="userSpaceOnUse" gradientTransform="translate(340.856 218.656) scale(36.1126 47.9214)">
<stop stop-color="#AEA8C2"/>
<stop offset="0.9829" stop-color="#8C74B1"/>
</radialGradient>
<radialGradient id="paint10_radial" cx="0" cy="0" r="1" gradientUnits="userSpaceOnUse" gradientTransform="translate(340.856 214.818) scale(36.1276 47.9414)">
<stop stop-color="#EBD7E3"/>
<stop offset="0.9829" stop-color="#BDAFD2"/>
</radialGradient>
<linearGradient id="paint11_linear" x1="320.547" y1="213.704" x2="320.547" y2="206.534" gradientUnits="userSpaceOnUse">
<stop stop-color="#EBD7E3"/>
<stop offset="0.9829" stop-color="#7036A1"/>
</linearGradient>
<linearGradient id="paint12_linear" x1="111.24" y1="248.578" x2="549.593" y2="248.578" gradientUnits="userSpaceOnUse">
<stop stop-color="#FF7527"/>
<stop offset="0.998" stop-color="#E03347"/>
</linearGradient>
<radialGradient id="paint13_radial" cx="0" cy="0" r="1" gradientUnits="userSpaceOnUse" gradientTransform="translate(475.519 221.73) scale(20.1844)">
<stop stop-color="#471371"/>
<stop offset="0.9944" stop-color="#20003B"/>
</radialGradient>
<radialGradient id="paint14_radial" cx="0" cy="0" r="1" gradientUnits="userSpaceOnUse" gradientTransform="translate(460.81 226.005) scale(7.38421)">
<stop stop-color="#00FFFF"/>
<stop offset="0.9944" stop-color="#26A9FF"/>
</radialGradient>
<linearGradient id="paint15_linear" x1="201.812" y1="236.427" x2="462.763" y2="219.665" gradientUnits="userSpaceOnUse">
<stop stop-color="#603082"/>
<stop offset="0.9944" stop-color="#2A0E51"/>
</linearGradient>
<radialGradient id="paint16_radial" cx="0" cy="0" r="1" gradientUnits="userSpaceOnUse" gradientTransform="translate(261.392 217.663) rotate(-3.67534) scale(118.278)">
<stop stop-color="#6D47D3"/>
<stop offset="0.9944" stop-color="#713592"/>
</radialGradient>
<linearGradient id="paint17_linear" x1="212.493" y1="224.834" x2="452.557" y2="209.413" gradientUnits="userSpaceOnUse">
<stop stop-color="#603082"/>
<stop offset="0.9944" stop-color="#2A0E51"/>
</linearGradient>
<radialGradient id="paint18_radial" cx="0" cy="0" r="1" gradientUnits="userSpaceOnUse" gradientTransform="translate(332.8 215.664) rotate(-3.67534) scale(84.0957)">
<stop stop-color="#6D47D3"/>
<stop offset="0.9944" stop-color="#713592"/>
</radialGradient>
<linearGradient id="paint19_linear" x1="240.806" y1="223.421" x2="437.844" y2="211.016" gradientUnits="userSpaceOnUse">
<stop offset="0.0189189" stop-color="#FF4C06"/>
<stop offset="0.1677" stop-color="#FF0E59"/>
<stop offset="0.5378" stop-color="#FF12C3"/>
<stop offset="1" stop-color="#00B3FF"/>
</linearGradient>
<linearGradient id="paint20_linear" x1="241.584" y1="221.165" x2="436.244" y2="208.909" gradientUnits="userSpaceOnUse">
<stop offset="0.0189189" stop-color="#FF4C06"/>
<stop offset="0.1677" stop-color="#FF0E59"/>
<stop offset="0.5378" stop-color="#FF12C3"/>
<stop offset="1" stop-color="#00B3FF"/>
</linearGradient>
<linearGradient id="paint21_linear" x1="242.134" y1="219.657" x2="435.221" y2="207.501" gradientUnits="userSpaceOnUse">
<stop offset="0.0189189" stop-color="#FF4C06"/>
<stop offset="0.1677" stop-color="#FF0E59"/>
<stop offset="0.5378" stop-color="#FF12C3"/>
<stop offset="1" stop-color="#00B3FF"/>
</linearGradient>
<linearGradient id="paint22_linear" x1="242.712" y1="217.889" x2="433.925" y2="205.851" gradientUnits="userSpaceOnUse">
<stop offset="0.0189189" stop-color="#FF4C06"/>
<stop offset="0.1677" stop-color="#FF0E59"/>
<stop offset="0.5378" stop-color="#FF12C3"/>
<stop offset="1" stop-color="#00B3FF"/>
</linearGradient>
<linearGradient id="paint23_linear" x1="243.233" y1="216.724" x2="433.204" y2="204.764" gradientUnits="userSpaceOnUse">
<stop offset="0.0189189" stop-color="#FF4C06"/>
<stop offset="0.1677" stop-color="#FF0E59"/>
<stop offset="0.5378" stop-color="#FF12C3"/>
<stop offset="1" stop-color="#00B3FF"/>
</linearGradient>
<linearGradient id="paint24_linear" x1="241.054" y1="219.664" x2="452.142" y2="206.374" gradientUnits="userSpaceOnUse">
<stop offset="0.0189189" stop-color="#FF4C06"/>
<stop offset="0.1677" stop-color="#FF0E59"/>
<stop offset="0.5378" stop-color="#FF12C3"/>
<stop offset="1" stop-color="#00B3FF"/>
</linearGradient>
<linearGradient id="paint25_linear" x1="241.563" y1="216.809" x2="446.508" y2="203.905" gradientUnits="userSpaceOnUse">
<stop offset="0.0189189" stop-color="#FF4C06"/>
<stop offset="0.1677" stop-color="#FF0E59"/>
<stop offset="0.5378" stop-color="#FF12C3"/>
<stop offset="1" stop-color="#00B3FF"/>
</linearGradient>
<linearGradient id="paint26_linear" x1="240.896" y1="223.424" x2="461.225" y2="209.552" gradientUnits="userSpaceOnUse">
<stop offset="0.0189189" stop-color="#FF4C06"/>
<stop offset="0.1677" stop-color="#FF0E59"/>
<stop offset="0.5378" stop-color="#FF12C3"/>
<stop offset="1" stop-color="#00B3FF"/>
</linearGradient>
<linearGradient id="paint27_linear" x1="242.251" y1="216.064" x2="438.561" y2="203.704" gradientUnits="userSpaceOnUse">
<stop offset="0.0189189" stop-color="#FF4C06"/>
<stop offset="0.1677" stop-color="#FF0E59"/>
<stop offset="0.5378" stop-color="#FF12C3"/>
<stop offset="1" stop-color="#00B3FF"/>
</linearGradient>
<linearGradient id="paint28_linear" x1="239.539" y1="221.638" x2="455.131" y2="208.064" gradientUnits="userSpaceOnUse">
<stop offset="0.0189189" stop-color="#FF4C06"/>
<stop offset="0.1677" stop-color="#FF0E59"/>
<stop offset="0.5378" stop-color="#FF12C3"/>
<stop offset="1" stop-color="#00B3FF"/>
</linearGradient>
<linearGradient id="paint29_linear" x1="240.33" y1="218.345" x2="448.529" y2="205.237" gradientUnits="userSpaceOnUse">
<stop offset="0.0189189" stop-color="#FF4C06"/>
<stop offset="0.1677" stop-color="#FF0E59"/>
<stop offset="0.5378" stop-color="#FF12C3"/>
<stop offset="1" stop-color="#00B3FF"/>
</linearGradient>
<linearGradient id="paint30_linear" x1="208.228" y1="223.383" x2="438.095" y2="208.911" gradientUnits="userSpaceOnUse">
<stop offset="0.0189189" stop-color="#FF4C06"/>
<stop offset="0.1677" stop-color="#FF0E59"/>
<stop offset="0.5378" stop-color="#FF12C3"/>
<stop offset="1" stop-color="#00B3FF"/>
</linearGradient>
<linearGradient id="paint31_linear" x1="217.901" y1="219.552" x2="436.504" y2="205.789" gradientUnits="userSpaceOnUse">
<stop offset="0.0189189" stop-color="#FF4C06"/>
<stop offset="0.1677" stop-color="#FF0E59"/>
<stop offset="0.5378" stop-color="#FF12C3"/>
<stop offset="1" stop-color="#00B3FF"/>
</linearGradient>
<linearGradient id="paint32_linear" x1="197.087" y1="228.424" x2="439.259" y2="213.178" gradientUnits="userSpaceOnUse">
<stop offset="0.0189189" stop-color="#FF4C06"/>
<stop offset="0.1677" stop-color="#FF0E59"/>
<stop offset="0.5378" stop-color="#FF12C3"/>
<stop offset="1" stop-color="#00B3FF"/>
</linearGradient>
<linearGradient id="paint33_linear" x1="208.945" y1="221.49" x2="439.722" y2="206.961" gradientUnits="userSpaceOnUse">
<stop offset="0.0189189" stop-color="#FF4C06"/>
<stop offset="0.1677" stop-color="#FF0E59"/>
<stop offset="0.5378" stop-color="#FF12C3"/>
<stop offset="1" stop-color="#00B3FF"/>
</linearGradient>
<linearGradient id="paint34_linear" x1="202.079" y1="225.598" x2="441.202" y2="210.543" gradientUnits="userSpaceOnUse">
<stop offset="0.0189189" stop-color="#FF4C06"/>
<stop offset="0.1677" stop-color="#FF0E59"/>
<stop offset="0.5378" stop-color="#FF12C3"/>
<stop offset="1" stop-color="#00B3FF"/>
</linearGradient>
<linearGradient id="paint35_linear" x1="223.423" y1="218.345" x2="436.745" y2="204.914" gradientUnits="userSpaceOnUse">
<stop offset="0.0189189" stop-color="#FF4C06"/>
<stop offset="0.1677" stop-color="#FF0E59"/>
<stop offset="0.5378" stop-color="#FF12C3"/>
<stop offset="1" stop-color="#00B3FF"/>
</linearGradient>
<linearGradient id="paint36_linear" x1="200.6" y1="223.711" x2="443.748" y2="208.403" gradientUnits="userSpaceOnUse">
<stop offset="0.0189189" stop-color="#FF4C06"/>
<stop offset="0.1677" stop-color="#FF0E59"/>
<stop offset="0.5378" stop-color="#FF12C3"/>
<stop offset="1" stop-color="#00B3FF"/>
</linearGradient>
<linearGradient id="paint37_linear" x1="210.959" y1="219.861" x2="440.84" y2="205.388" gradientUnits="userSpaceOnUse">
<stop offset="0.0189189" stop-color="#FF4C06"/>
<stop offset="0.1677" stop-color="#FF0E59"/>
<stop offset="0.5378" stop-color="#FF12C3"/>
<stop offset="1" stop-color="#00B3FF"/>
</linearGradient>
<linearGradient id="paint38_linear" x1="189.535" y1="228.612" x2="446.453" y2="212.437" gradientUnits="userSpaceOnUse">
<stop offset="0.0189189" stop-color="#FF4C06"/>
<stop offset="0.1677" stop-color="#FF0E59"/>
<stop offset="0.5378" stop-color="#FF12C3"/>
<stop offset="1" stop-color="#00B3FF"/>
</linearGradient>
<linearGradient id="paint39_linear" x1="216.361" y1="218.675" x2="440.96" y2="204.535" gradientUnits="userSpaceOnUse">
<stop offset="0.0189189" stop-color="#FF4C06"/>
<stop offset="0.1677" stop-color="#FF0E59"/>
<stop offset="0.5378" stop-color="#FF12C3"/>
<stop offset="1" stop-color="#00B3FF"/>
</linearGradient>
<linearGradient id="paint40_linear" x1="187.472" y1="226.336" x2="450.249" y2="209.792" gradientUnits="userSpaceOnUse">
<stop offset="0.0189189" stop-color="#FF4C06"/>
<stop offset="0.1677" stop-color="#FF0E59"/>
<stop offset="0.5378" stop-color="#FF12C3"/>
<stop offset="1" stop-color="#00B3FF"/>
</linearGradient>
<linearGradient id="paint41_linear" x1="194.561" y1="222.301" x2="447.704" y2="206.363" gradientUnits="userSpaceOnUse">
<stop offset="0.0189189" stop-color="#FF4C06"/>
<stop offset="0.1677" stop-color="#FF0E59"/>
<stop offset="0.5378" stop-color="#FF12C3"/>
<stop offset="1" stop-color="#00B3FF"/>
</linearGradient>
<linearGradient id="paint42_linear" x1="197.216" y1="223.727" x2="450.848" y2="207.758" gradientUnits="userSpaceOnUse">
<stop offset="0.0189189" stop-color="#FF4C06"/>
<stop offset="0.1677" stop-color="#FF0E59"/>
<stop offset="0.5378" stop-color="#FF12C3"/>
<stop offset="1" stop-color="#00B3FF"/>
</linearGradient>
<linearGradient id="paint43_linear" x1="208.08" y1="219.915" x2="446.253" y2="204.92" gradientUnits="userSpaceOnUse">
<stop offset="0.0189189" stop-color="#FF4C06"/>
<stop offset="0.1677" stop-color="#FF0E59"/>
<stop offset="0.5378" stop-color="#FF12C3"/>
<stop offset="1" stop-color="#00B3FF"/>
</linearGradient>
<linearGradient id="paint44_linear" x1="189.45" y1="228.411" x2="454.278" y2="211.737" gradientUnits="userSpaceOnUse">
<stop offset="0.0189189" stop-color="#FF4C06"/>
<stop offset="0.1677" stop-color="#FF0E59"/>
<stop offset="0.5378" stop-color="#FF12C3"/>
<stop offset="1" stop-color="#00B3FF"/>
</linearGradient>
<linearGradient id="paint45_linear" x1="193.637" y1="222.175" x2="455.941" y2="205.661" gradientUnits="userSpaceOnUse">
<stop offset="0.0189189" stop-color="#FF4C06"/>
<stop offset="0.1677" stop-color="#FF0E59"/>
<stop offset="0.5378" stop-color="#FF12C3"/>
<stop offset="1" stop-color="#00B3FF"/>
</linearGradient>
<linearGradient id="paint46_linear" x1="235.054" y1="217.545" x2="436.998" y2="204.83" gradientUnits="userSpaceOnUse">
<stop offset="0.0189189" stop-color="#FF4C06"/>
<stop offset="0.1677" stop-color="#FF0E59"/>
<stop offset="0.5378" stop-color="#FF12C3"/>
<stop offset="1" stop-color="#00B3FF"/>
</linearGradient>
<linearGradient id="paint47_linear" x1="186.07" y1="226.232" x2="459.989" y2="208.986" gradientUnits="userSpaceOnUse">
<stop offset="0.0189189" stop-color="#FF4C06"/>
<stop offset="0.1677" stop-color="#FF0E59"/>
<stop offset="0.5378" stop-color="#FF12C3"/>
<stop offset="1" stop-color="#00B3FF"/>
</linearGradient>
<linearGradient id="paint48_linear" x1="201.035" y1="220.219" x2="456.377" y2="204.143" gradientUnits="userSpaceOnUse">
<stop offset="0.0189189" stop-color="#FF4C06"/>
<stop offset="0.1677" stop-color="#FF0E59"/>
<stop offset="0.5378" stop-color="#FF12C3"/>
<stop offset="1" stop-color="#00B3FF"/>
</linearGradient>
<linearGradient id="paint49_linear" x1="166.826" y1="229.621" x2="476.773" y2="210.107" gradientUnits="userSpaceOnUse">
<stop offset="0.0189189" stop-color="#FF4C06"/>
<stop offset="0.1677" stop-color="#FF0E59"/>
<stop offset="0.5378" stop-color="#FF12C3"/>
<stop offset="1" stop-color="#00B3FF"/>
</linearGradient>
<linearGradient id="paint50_linear" x1="185.564" y1="224.286" x2="465.692" y2="206.65" gradientUnits="userSpaceOnUse">
<stop offset="0.0189189" stop-color="#FF4C06"/>
<stop offset="0.1677" stop-color="#FF0E59"/>
<stop offset="0.5378" stop-color="#FF12C3"/>
<stop offset="1" stop-color="#00B3FF"/>
</linearGradient>
<linearGradient id="paint51_linear" x1="240.176" y1="216.854" x2="444.59" y2="203.984" gradientUnits="userSpaceOnUse">
<stop offset="0.0189189" stop-color="#FF4C06"/>
<stop offset="0.1677" stop-color="#FF0E59"/>
<stop offset="0.5378" stop-color="#FF12C3"/>
<stop offset="1" stop-color="#00B3FF"/>
</linearGradient>
<linearGradient id="paint52_linear" x1="237.855" y1="224.003" x2="456.942" y2="210.21" gradientUnits="userSpaceOnUse">
<stop offset="0.0189189" stop-color="#FF4C06"/>
<stop offset="0.1677" stop-color="#FF0E59"/>
<stop offset="0.5378" stop-color="#FF12C3"/>
<stop offset="1" stop-color="#00B3FF"/>
</linearGradient>
<linearGradient id="paint53_linear" x1="239.143" y1="220.02" x2="449.17" y2="206.797" gradientUnits="userSpaceOnUse">
<stop offset="0.0189189" stop-color="#FF4C06"/>
<stop offset="0.1677" stop-color="#FF0E59"/>
<stop offset="0.5378" stop-color="#FF12C3"/>
<stop offset="1" stop-color="#00B3FF"/>
</linearGradient>
<linearGradient id="paint54_linear" x1="239.17" y1="218.589" x2="444.879" y2="205.638" gradientUnits="userSpaceOnUse">
<stop offset="0.0189189" stop-color="#FF4C06"/>
<stop offset="0.1677" stop-color="#FF0E59"/>
<stop offset="0.5378" stop-color="#FF12C3"/>
<stop offset="1" stop-color="#00B3FF"/>
</linearGradient>
<linearGradient id="paint55_linear" x1="245.744" y1="216.209" x2="426.767" y2="204.812" gradientUnits="userSpaceOnUse">
<stop offset="0.0189189" stop-color="#FF4C06"/>
<stop offset="0.1677" stop-color="#FF0E59"/>
<stop offset="0.5378" stop-color="#FF12C3"/>
<stop offset="1" stop-color="#00B3FF"/>
</linearGradient>
<linearGradient id="paint56_linear" x1="237.579" y1="222.011" x2="450.559" y2="208.602" gradientUnits="userSpaceOnUse">
<stop offset="0.0189189" stop-color="#FF4C06"/>
<stop offset="0.1677" stop-color="#FF0E59"/>
<stop offset="0.5378" stop-color="#FF12C3"/>
<stop offset="1" stop-color="#00B3FF"/>
</linearGradient>
<linearGradient id="paint57_linear" x1="240.486" y1="217.228" x2="439.597" y2="204.692" gradientUnits="userSpaceOnUse">
<stop offset="0.0189189" stop-color="#FF4C06"/>
<stop offset="0.1677" stop-color="#FF0E59"/>
<stop offset="0.5378" stop-color="#FF12C3"/>
<stop offset="1" stop-color="#00B3FF"/>
</linearGradient>
<linearGradient id="paint58_linear" x1="235.823" y1="224.383" x2="452.91" y2="210.715" gradientUnits="userSpaceOnUse">
<stop offset="0.0189189" stop-color="#FF4C06"/>
<stop offset="0.1677" stop-color="#FF0E59"/>
<stop offset="0.5378" stop-color="#FF12C3"/>
<stop offset="1" stop-color="#00B3FF"/>
</linearGradient>
<linearGradient id="paint59_linear" x1="238.701" y1="220.248" x2="444.162" y2="207.312" gradientUnits="userSpaceOnUse">
<stop offset="0.0189189" stop-color="#FF4C06"/>
<stop offset="0.1677" stop-color="#FF0E59"/>
<stop offset="0.5378" stop-color="#FF12C3"/>
<stop offset="1" stop-color="#00B3FF"/>
</linearGradient>
<linearGradient id="paint60_linear" x1="239.634" y1="218.702" x2="440.478" y2="206.057" gradientUnits="userSpaceOnUse">
<stop offset="0.0189189" stop-color="#FF4C06"/>
<stop offset="0.1677" stop-color="#FF0E59"/>
<stop offset="0.5378" stop-color="#FF12C3"/>
<stop offset="1" stop-color="#00B3FF"/>
</linearGradient>
<linearGradient id="paint61_linear" x1="237.439" y1="222.292" x2="445.526" y2="209.191" gradientUnits="userSpaceOnUse">
<stop offset="0.0189189" stop-color="#FF4C06"/>
<stop offset="0.1677" stop-color="#FF0E59"/>
<stop offset="0.5378" stop-color="#FF12C3"/>
<stop offset="1" stop-color="#00B3FF"/>
</linearGradient>
<linearGradient id="paint62_linear" x1="239.819" y1="220.351" x2="439.389" y2="207.787" gradientUnits="userSpaceOnUse">
<stop offset="0.0189189" stop-color="#FF4C06"/>
<stop offset="0.1677" stop-color="#FF0E59"/>
<stop offset="0.5378" stop-color="#FF12C3"/>
<stop offset="1" stop-color="#00B3FF"/>
</linearGradient>
<linearGradient id="paint63_linear" x1="240.803" y1="223.18" x2="437.887" y2="210.768" gradientUnits="userSpaceOnUse">
<stop offset="0.0189189" stop-color="#FF4C06"/>
<stop offset="0.1677" stop-color="#FF0E59"/>
<stop offset="0.5378" stop-color="#FF12C3"/>
<stop offset="1" stop-color="#00B3FF"/>
</linearGradient>
<linearGradient id="paint64_linear" x1="241.884" y1="217.241" x2="435.67" y2="205.041" gradientUnits="userSpaceOnUse">
<stop offset="0.0189189" stop-color="#FF4C06"/>
<stop offset="0.1677" stop-color="#FF0E59"/>
<stop offset="0.5378" stop-color="#FF12C3"/>
<stop offset="1" stop-color="#00B3FF"/>
</linearGradient>
<linearGradient id="paint65_linear" x1="242.965" y1="216.691" x2="433.858" y2="204.673" gradientUnits="userSpaceOnUse">
<stop offset="0.0189189" stop-color="#FF4C06"/>
<stop offset="0.1677" stop-color="#FF0E59"/>
<stop offset="0.5378" stop-color="#FF12C3"/>
<stop offset="1" stop-color="#00B3FF"/>
</linearGradient>
<linearGradient id="paint66_linear" x1="241.309" y1="222.136" x2="436.991" y2="209.816" gradientUnits="userSpaceOnUse">
<stop offset="0.0189189" stop-color="#FF4C06"/>
<stop offset="0.1677" stop-color="#FF0E59"/>
<stop offset="0.5378" stop-color="#FF12C3"/>
<stop offset="1" stop-color="#00B3FF"/>
</linearGradient>
<linearGradient id="paint67_linear" x1="243.682" y1="218.6" x2="433.279" y2="206.663" gradientUnits="userSpaceOnUse">
<stop offset="0.0189189" stop-color="#FF4C06"/>
<stop offset="0.1677" stop-color="#FF0E59"/>
<stop offset="0.5378" stop-color="#FF12C3"/>
<stop offset="1" stop-color="#00B3FF"/>
</linearGradient>
<linearGradient id="paint68_linear" x1="248.055" y1="220.019" x2="429.082" y2="208.621" gradientUnits="userSpaceOnUse">
<stop offset="0.0189189" stop-color="#FF4C06"/>
<stop offset="0.1677" stop-color="#FF0E59"/>
<stop offset="0.5378" stop-color="#FF12C3"/>
<stop offset="1" stop-color="#00B3FF"/>
</linearGradient>
<linearGradient id="paint69_linear" x1="249.292" y1="216.89" x2="427.162" y2="205.691" gradientUnits="userSpaceOnUse">
<stop offset="0.0189189" stop-color="#FF4C06"/>
<stop offset="0.1677" stop-color="#FF0E59"/>
<stop offset="0.5378" stop-color="#FF12C3"/>
<stop offset="1" stop-color="#00B3FF"/>
</linearGradient>
<linearGradient id="paint70_linear" x1="260.44" y1="217.69" x2="418.395" y2="207.745" gradientUnits="userSpaceOnUse">
<stop offset="0.0189189" stop-color="#FF4C06"/>
<stop offset="0.1677" stop-color="#FF0E59"/>
<stop offset="0.5378" stop-color="#FF12C3"/>
<stop offset="1" stop-color="#00B3FF"/>
</linearGradient>
<linearGradient id="paint71_linear" x1="243.682" y1="216.78" x2="433.074" y2="204.857" gradientUnits="userSpaceOnUse">
<stop offset="0.0189189" stop-color="#FF4C06"/>
<stop offset="0.1677" stop-color="#FF0E59"/>
<stop offset="0.5378" stop-color="#FF12C3"/>
<stop offset="1" stop-color="#00B3FF"/>
</linearGradient>
<linearGradient id="paint72_linear" x1="259.987" y1="221.2" x2="419.554" y2="211.154" gradientUnits="userSpaceOnUse">
<stop offset="0.0189189" stop-color="#FF4C06"/>
<stop offset="0.1677" stop-color="#FF0E59"/>
<stop offset="0.5378" stop-color="#FF12C3"/>
<stop offset="1" stop-color="#00B3FF"/>
</linearGradient>
<linearGradient id="paint73_linear" x1="204.045" y1="219.865" x2="463.419" y2="203.536" gradientUnits="userSpaceOnUse">
<stop offset="0.0189189" stop-color="#FF4C06"/>
<stop offset="0.1677" stop-color="#FF0E59"/>
<stop offset="0.5378" stop-color="#FF12C3"/>
<stop offset="1" stop-color="#00B3FF"/>
</linearGradient>
<linearGradient id="paint74_linear" x1="188.624" y1="223.933" x2="476.329" y2="205.82" gradientUnits="userSpaceOnUse">
<stop offset="0.0189189" stop-color="#FF4C06"/>
<stop offset="0.1677" stop-color="#FF0E59"/>
<stop offset="0.5378" stop-color="#FF12C3"/>
<stop offset="1" stop-color="#00B3FF"/>
</linearGradient>
<linearGradient id="paint75_linear" x1="240.251" y1="217.135" x2="435.316" y2="204.854" gradientUnits="userSpaceOnUse">
<stop offset="0.0189189" stop-color="#FF4C06"/>
<stop offset="0.1677" stop-color="#FF0E59"/>
<stop offset="0.5378" stop-color="#FF12C3"/>
<stop offset="1" stop-color="#00B3FF"/>
</linearGradient>
<linearGradient id="paint76_linear" x1="168.772" y1="227.095" x2="482.388" y2="207.35" gradientUnits="userSpaceOnUse">
<stop offset="0.0189189" stop-color="#FF4C06"/>
<stop offset="0.1677" stop-color="#FF0E59"/>
<stop offset="0.5378" stop-color="#FF12C3"/>
<stop offset="1" stop-color="#00B3FF"/>
</linearGradient>
<linearGradient id="paint77_linear" x1="179.66" y1="222.92" x2="474.375" y2="204.365" gradientUnits="userSpaceOnUse">
<stop offset="0.0189189" stop-color="#FF4C06"/>
<stop offset="0.1677" stop-color="#FF0E59"/>
<stop offset="0.5378" stop-color="#FF12C3"/>
<stop offset="1" stop-color="#00B3FF"/>
</linearGradient>
<linearGradient id="paint78_linear" x1="215.367" y1="230.963" x2="450.152" y2="215.881" gradientUnits="userSpaceOnUse">
<stop offset="0.0189189" stop-color="#FF4C06"/>
<stop offset="0.1677" stop-color="#FF0E59"/>
<stop offset="0.5378" stop-color="#FF12C3"/>
<stop offset="1" stop-color="#00B3FF"/>
</linearGradient>
<linearGradient id="paint79_linear" x1="195.511" y1="117.961" x2="167.553" y2="119.363" gradientUnits="userSpaceOnUse">
<stop stop-color="#FFD328"/>
<stop offset="1" stop-color="#FFA700"/>
</linearGradient>
<linearGradient id="paint80_linear" x1="194.052" y1="88.9071" x2="163.602" y2="90.4346" gradientUnits="userSpaceOnUse">
<stop stop-color="#FF6E27"/>
<stop offset="0.998" stop-color="#E03347"/>
</linearGradient>
<linearGradient id="paint81_linear" x1="13.8243" y1="31.3597" x2="13.8243" y2="7.304" gradientUnits="userSpaceOnUse">
<stop stop-color="#FF6E27"/>
<stop offset="0.998" stop-color="#E03347"/>
</linearGradient>
<linearGradient id="paint82_linear" x1="41.2724" y1="125.715" x2="41.2724" y2="86.9183" gradientUnits="userSpaceOnUse">
<stop stop-color="#FFD328"/>
<stop offset="1" stop-color="#FFA700"/>
</linearGradient>
<radialGradient id="paint83_radial" cx="0" cy="0" r="1" gradientUnits="userSpaceOnUse" gradientTransform="translate(507.004 240.312) scale(110.8 59.2059)">
<stop stop-color="#FF52E3"/>
<stop offset="0.0856309" stop-color="#F54FDA"/>
<stop offset="0.2337" stop-color="#D846C1"/>
<stop offset="0.4265" stop-color="#AB3798"/>
<stop offset="0.6566" stop-color="#6B2360"/>
<stop offset="0.9155" stop-color="#1C0919"/>
<stop offset="1"/>
</radialGradient>
<linearGradient id="paint84_linear" x1="323.189" y1="171.637" x2="323.189" y2="23.9996" gradientUnits="userSpaceOnUse">
<stop offset="0.0171145" stop-color="#C2B5D6"/>
<stop offset="0.1847" stop-color="#D3C6DE"/>
<stop offset="0.4362" stop-color="#E5D8E7"/>
<stop offset="0.7013" stop-color="#EFE2EC"/>
<stop offset="1" stop-color="#F3E6EE"/>
</linearGradient>
<linearGradient id="paint85_linear" x1="341.966" y1="152.813" x2="356.989" y2="152.813" gradientUnits="userSpaceOnUse">
<stop stop-color="#603082"/>
<stop offset="0.9944" stop-color="#2A0E51"/>
</linearGradient>
<linearGradient id="paint86_linear" x1="117.497" y1="222.194" x2="243.822" y2="222.194" gradientUnits="userSpaceOnUse">
<stop stop-color="#FF6E27"/>
<stop offset="0.998" stop-color="#E03347"/>
</linearGradient>
<linearGradient id="paint87_linear" x1="120.131" y1="222.609" x2="239.918" y2="222.609" gradientUnits="userSpaceOnUse">
<stop stop-color="#F3E6EE"/>
<stop offset="0.2987" stop-color="#EFE2EC"/>
<stop offset="0.5638" stop-color="#E5D8E7"/>
<stop offset="0.8153" stop-color="#D3C6DE"/>
<stop offset="0.9829" stop-color="#C2B5D6"/>
</linearGradient>
<linearGradient id="paint88_linear" x1="120.031" y1="227.394" x2="124.037" y2="227.394" gradientUnits="userSpaceOnUse">
<stop stop-color="#C72A16"/>
<stop offset="0.998" stop-color="#BA2244"/>
</linearGradient>
<linearGradient id="paint89_linear" x1="139.299" y1="246.938" x2="139.299" y2="232.304" gradientUnits="userSpaceOnUse">
<stop stop-color="#00FFFF"/>
<stop offset="0.9944" stop-color="#26A9FF"/>
</linearGradient>
<linearGradient id="paint90_linear" x1="74.4311" y1="182.379" x2="69.6077" y2="140.269" gradientUnits="userSpaceOnUse">
<stop stop-color="#FFD328"/>
<stop offset="1" stop-color="#FFA700"/>
</linearGradient>
<linearGradient id="paint91_linear" x1="15.237" y1="175.935" x2="129.729" y2="162.821" gradientUnits="userSpaceOnUse">
<stop stop-color="#F3E6EE"/>
<stop offset="0.4124" stop-color="#EFE3ED"/>
<stop offset="0.7779" stop-color="#E5DBEA"/>
<stop offset="0.9829" stop-color="#DBD3E7"/>
</linearGradient>
<linearGradient id="paint92_linear" x1="16.7702" y1="165.729" x2="126.215" y2="153.193" gradientUnits="userSpaceOnUse">
<stop stop-color="#F3E6EE"/>
<stop offset="0.4124" stop-color="#EFE3ED"/>
<stop offset="0.7779" stop-color="#E5DBEA"/>
<stop offset="0.9829" stop-color="#DBD3E7"/>
</linearGradient>
<linearGradient id="paint93_linear" x1="166.364" y1="210.928" x2="166.364" y2="176.584" gradientUnits="userSpaceOnUse">
<stop offset="0.00558661" stop-color="#7179FF"/>
<stop offset="1" stop-color="#7E85FE"/>
</linearGradient>
<linearGradient id="paint94_linear" x1="106.786" y1="193.577" x2="183.349" y2="193.577" gradientUnits="userSpaceOnUse">
<stop stop-color="#F3E6EE"/>
<stop offset="0.4124" stop-color="#EFE3ED"/>
<stop offset="0.7779" stop-color="#E5DBEA"/>
<stop offset="0.9829" stop-color="#DBD3E7"/>
</linearGradient>
<linearGradient id="paint95_linear" x1="126.733" y1="193.577" x2="126.733" y2="188.813" gradientUnits="userSpaceOnUse">
<stop stop-color="#FF6E27"/>
<stop offset="0.998" stop-color="#E03347"/>
</linearGradient>
<linearGradient id="paint96_linear" x1="156.324" y1="199.167" x2="156.324" y2="197.243" gradientUnits="userSpaceOnUse">
<stop stop-color="#FFD328"/>
<stop offset="1" stop-color="#FFA700"/>
</linearGradient>
<linearGradient id="paint97_linear" x1="410.867" y1="115.73" x2="489.588" y2="126.65" gradientUnits="userSpaceOnUse">
<stop offset="0.00558659" stop-color="#2A0E45"/>
<stop offset="1" stop-color="#561F7D"/>
</linearGradient>
<linearGradient id="paint98_linear" x1="409.299" y1="112.921" x2="491.767" y2="124.361" gradientUnits="userSpaceOnUse">
<stop offset="0.00558659" stop-color="#2A0E45"/>
<stop offset="1" stop-color="#561F7D"/>
</linearGradient>
<radialGradient id="paint99_radial" cx="0" cy="0" r="1" gradientUnits="userSpaceOnUse" gradientTransform="translate(465.186 13.0263) rotate(7.89754) scale(29.6025)">
<stop stop-color="#86478A"/>
<stop offset="0.9944" stop-color="#5A2B82"/>
</radialGradient>
<radialGradient id="paint100_radial" cx="0" cy="0" r="1" gradientUnits="userSpaceOnUse" gradientTransform="translate(464.906 15.0438) rotate(7.89755) scale(29.4919)">
<stop stop-color="#86478A"/>
<stop offset="0.9944" stop-color="#5A2B82"/>
</radialGradient>
<linearGradient id="paint101_linear" x1="409.652" y1="110.379" x2="492.12" y2="121.819" gradientUnits="userSpaceOnUse">
<stop stop-color="#985997"/>
<stop offset="0.9944" stop-color="#5A2B82"/>
</linearGradient>
<linearGradient id="paint102_linear" x1="425.304" y1="11.6799" x2="503.929" y2="22.5867" gradientUnits="userSpaceOnUse">
<stop offset="0.00558659" stop-color="#2A0E45"/>
<stop offset="1" stop-color="#561F7D"/>
</linearGradient>
<linearGradient id="paint103_linear" x1="456.612" y1="66.9737" x2="463.656" y2="16.1913" gradientUnits="userSpaceOnUse">
<stop offset="0.0171145" stop-color="#CEC4DE"/>
<stop offset="1" stop-color="#F0E1EA"/>
</linearGradient>
<linearGradient id="paint104_linear" x1="449.475" y1="118.405" x2="456.61" y2="66.9733" gradientUnits="userSpaceOnUse">
<stop offset="0.0171145" stop-color="#CEC4DE"/>
<stop offset="1" stop-color="#F0E1EA"/>
</linearGradient>
<linearGradient id="paint105_linear" x1="461.703" y1="64.3985" x2="461.703" y2="50.1208" gradientUnits="userSpaceOnUse">
<stop stop-color="#FF8647"/>
<stop offset="1" stop-color="#FFB934"/>
</linearGradient>
<linearGradient id="paint106_linear" x1="440.316" y1="51.7146" x2="483.091" y2="51.7146" gradientUnits="userSpaceOnUse">
<stop stop-color="#FFC200"/>
<stop offset="1" stop-color="#FFD328"/>
</linearGradient>
<linearGradient id="paint107_linear" x1="451.174" y1="118.508" x2="451.174" y2="89.5669" gradientUnits="userSpaceOnUse">
<stop stop-color="#FF8647"/>
<stop offset="1" stop-color="#FFB934"/>
</linearGradient>
<linearGradient id="paint108_linear" x1="424.025" y1="96.4283" x2="478.297" y2="96.4283" gradientUnits="userSpaceOnUse">
<stop stop-color="#FFC200"/>
<stop offset="1" stop-color="#FFD328"/>
</linearGradient>
<linearGradient id="paint109_linear" x1="455.3" y1="98.4008" x2="455.3" y2="84.6933" gradientUnits="userSpaceOnUse">
<stop stop-color="#FFB934"/>
<stop offset="1" stop-color="#FF9F47"/>
</linearGradient>
<linearGradient id="paint110_linear" x1="457.009" y1="85.1323" x2="457.009" y2="63.6461" gradientUnits="userSpaceOnUse">
<stop stop-color="#FFB934"/>
<stop offset="1" stop-color="#FF9F47"/>
</linearGradient>
<linearGradient id="paint111_linear" x1="437.648" y1="117.16" x2="437.648" y2="68.1858" gradientUnits="userSpaceOnUse">
<stop/>
<stop offset="1" stop-color="#CDC8CA"/>
</linearGradient>
<linearGradient id="paint112_linear" x1="443.845" y1="65.6698" x2="443.845" y2="13.1329" gradientUnits="userSpaceOnUse">
<stop/>
<stop offset="1" stop-color="#CDC8CA"/>
</linearGradient>
<linearGradient id="paint113_linear" x1="457.997" y1="44.2074" x2="498.466" y2="44.2074" gradientUnits="userSpaceOnUse">
<stop stop-color="#CDC8CA"/>
<stop offset="1"/>
</linearGradient>
<linearGradient id="paint114_linear" x1="480.807" y1="120.175" x2="480.807" y2="97.4607" gradientUnits="userSpaceOnUse">
<stop stop-color="#AB6F55"/>
<stop offset="1"/>
</linearGradient>
<linearGradient id="paint115_linear" x1="486.31" y1="195.94" x2="495.725" y2="131.467" gradientUnits="userSpaceOnUse">
<stop offset="0.0171145" stop-color="#FFDAC7"/>
<stop offset="1" stop-color="#FFF3C2"/>
</linearGradient>
<linearGradient id="paint116_linear" x1="483.245" y1="159.264" x2="560.543" y2="102.294" gradientUnits="userSpaceOnUse">
<stop offset="0.00198413" stop-color="#C93347"/>
<stop offset="1" stop-color="#FF7527"/>
</linearGradient>
<linearGradient id="paint117_linear" x1="472.875" y1="168.741" x2="475.818" y2="167.198" gradientUnits="userSpaceOnUse">
<stop offset="0.00558659" stop-color="#2A0E51"/>
<stop offset="1" stop-color="#50306C"/>
</linearGradient>
<radialGradient id="paint118_radial" cx="0" cy="0" r="1" gradientUnits="userSpaceOnUse" gradientTransform="translate(559.112 103.248) rotate(53.609) scale(3.80846)">
<stop stop-color="#EBD7E3"/>
<stop offset="0.9829" stop-color="#BDAFD2"/>
</radialGradient>
<linearGradient id="paint119_linear" x1="471.091" y1="166.386" x2="559.643" y2="101.121" gradientUnits="userSpaceOnUse">
<stop/>
<stop offset="1" stop-color="#CD6327"/>
</linearGradient>
<linearGradient id="paint120_linear" x1="561.871" y1="99.3408" x2="566.949" y2="99.3408" gradientUnits="userSpaceOnUse">
<stop stop-color="#DD7500"/>
<stop offset="1" stop-color="#CD6327"/>
</linearGradient>
<radialGradient id="paint121_radial" cx="0" cy="0" r="1" gradientUnits="userSpaceOnUse" gradientTransform="translate(539.592 195.651) scale(33.191)">
<stop offset="0.00558661" stop-color="#7179FF"/>
<stop offset="1" stop-color="#584EDE"/>
</radialGradient>
<radialGradient id="paint122_radial" cx="0" cy="0" r="1" gradientUnits="userSpaceOnUse" gradientTransform="translate(576.89 183.168) scale(50.6926)">
<stop offset="0.00558661" stop-color="#7179FF"/>
<stop offset="1" stop-color="#584EDE"/>
</radialGradient>
<linearGradient id="paint123_linear" x1="577.08" y1="207.934" x2="577.08" y2="155.416" gradientUnits="userSpaceOnUse">
<stop offset="0.00558661" stop-color="#7179FF"/>
<stop offset="1" stop-color="#7E85FE"/>
</linearGradient>
<linearGradient id="paint124_linear" x1="640.813" y1="262.775" x2="640.813" y2="222.656" gradientUnits="userSpaceOnUse">
<stop stop-color="#FF8647"/>
<stop offset="1" stop-color="#FFB934"/>
</linearGradient>
<linearGradient id="paint125_linear" x1="599.628" y1="224.722" x2="599.628" y2="178.091" gradientUnits="userSpaceOnUse">
<stop stop-color="#FF8647"/>
<stop offset="1" stop-color="#FFB934"/>
</linearGradient>
</defs>
</svg>
